<svg version="1.2" xmlns="http://www.w3.org/2000/svg" viewBox="0 0 350 675" width="350" height="675">
	<title>Thoth (4)</title>
	<style>
		.s0 { fill: #000000;stroke: #000000;stroke-linecap: round;stroke-linejoin: round;stroke-width: .5 } 
		.s1 { fill: #fac53a;stroke: #c13c1b;stroke-width: .4 } 
		.s2 { fill: none;stroke: #000000;stroke-width: .4 } 
		.s3 { fill: #a13c2a;stroke: #000000;stroke-linecap: round;stroke-linejoin: round;stroke-width: .4 } 
		.s4 { fill: #ffffff;stroke: #000000;stroke-linecap: round;stroke-linejoin: round;stroke-width: .4 } 
		.s5 { fill: #fac53a;stroke: #000000;stroke-linecap: round;stroke-linejoin: round;stroke-width: .4 } 
		.s6 { fill: #0044aa;stroke: #000000;stroke-linecap: round;stroke-linejoin: round;stroke-width: .4 } 
		.s7 { fill: #ffffff;stroke: #000000;stroke-width: .4 } 
		.s8 { fill: #fac53a;stroke: #000000;stroke-width: .4 } 
		.s9 { fill: none;stroke: #0044aa;stroke-linejoin: round;stroke-width: 4.8 } 
		.s10 { fill: none;stroke: #308d57;stroke-width: 3.7 } 
		.s11 { fill: none;stroke: #c13c1b;stroke-width: 3 } 
		.s12 { fill: none;stroke: #0044aa;stroke-width: 4.4 } 
		.s13 { fill: none;stroke: #fac53a;stroke-width: 10.9 } 
		.s14 { fill: none;stroke: #000000;stroke-linecap: round;stroke-linejoin: round;stroke-width: .5 } 
		.s15 { fill: none;stroke: #c13c1b;stroke-width: .4 } 
		.s16 { fill: none;stroke: #c13c1b;stroke-linecap: round;stroke-linejoin: round;stroke-width: .4 } 
		.s17 { fill: #a13c2a;stroke: #000000;stroke-width: .4 } 
		.s18 { fill: #002255;stroke: #000000;stroke-linecap: round;stroke-linejoin: round;stroke-width: .4 } 
		.s19 { fill: #0044aa;stroke: #000000;stroke-width: .4 } 
		.s20 { fill: #a13c2a } 
		.s21 { fill: none;stroke: #c13c1b;stroke-linecap: round;stroke-linejoin: round;stroke-width: .7 } 
		.s22 { fill: #0044aa;stroke: #0044aa;stroke-width: .4 } 
		.s23 { fill: #c13c1b;stroke: #c13c1b;stroke-width: .4 } 
		.s24 { fill: #308d57 } 
		.s25 { fill: none;stroke: #000000;stroke-linecap: round;stroke-linejoin: round;stroke-width: .4 } 
		.s26 { opacity: .7;fill: #000000 } 
		.s27 { fill: none;stroke: #c13c1b;stroke-linecap: round;stroke-linejoin: round;stroke-width: .6 } 
		.s28 { fill: #308d57;stroke: #000000;stroke-width: .4 } 
		.s29 { fill: none;stroke: #646464;stroke-width: .5 } 
		.s30 { fill: #000000;stroke: #000000;stroke-linecap: round;stroke-linejoin: round;stroke-width: .6 } 
		.s31 { fill: none;stroke: #000000;stroke-linecap: round;stroke-linejoin: round;stroke-width: .8 } 
	</style>
	<g id="layer1">
		<g id="g11153">
			<path id="path2247" fill-rule="evenodd" class="s0" d="m168.9 41.9c-0.2 0.1-0.9 1.2-4.4 3.3-22.9 12.7-59 35.1-59.4 69.2l4.7-0.9c7.1-34.2 43.5-51.5 62.3-55.2 0.3 0 1.7-0.5 2.1-0.6"/>
			<path id="path22350" fill-rule="evenodd" class="s1" d="m268.5 448.5l-0.3 12.3c0.1 17.8 0.6 36.6 4.2 49.6l19.3 143.7 11.1-1.2c-8.3-48.1-10.1-94.9-15.1-142.4-3.1-31.1-9.5-22.2-19.2-62z"/>
			<path id="path5160" fill-rule="evenodd" class="s2" d="m299.8 171.4h-30.1"/>
			<path id="path5162" fill-rule="evenodd" class="s2" d="m300.3 180.5l-30.2 0.4"/>
			<path id="path16040" fill-rule="evenodd" class="s3" d="m218.4 110.5l39.7 0.7c19.4 6.2 34.9 13.5 40.9 34.6 2.2 12.1 0.2 16.4 0.9 25.6l0.6 9.6c1.4 20.6 1.9 41.4 0.4 62.6-1.3 18.5 2.7 38.1 3 56.6-0.6 15.4-4.3 26.9-5.1 40.4l-19.3-1.5c-8.8-50-3.7-66.3-5.8-89.3-3.2-28-3.2-55.2-4.3-82.7-11.9 21.4-24.4 42.2-31.2 70.4v4.6l6.5 30c3.4 4.8 13.4 27 6.2 39.6 8.2 48.4 12.1 97.9 11.7 146.3l0.6 15.7c1.3 21.5 9.9 42.9 9.6 66.4-0.4 23.5-4.6 46.5-7.8 68.9-1.1 25.8 2.4 30.4 1.5 39.8-0.9 9.4-6.1 9-11.5 8.9-5.5 0-10.8-0.9-11-4.6-5.6-1.5-13.6 5-72.2 2.7-2.6-0.3-2.8-4.1-3-6.7 2.6-0.7 5.3-1.1 8.2-0.6 19.5-9.5 38.7-13.6 58.7-31.5 0.9-1 1.7-2.3 1.5-5.9-2.5-35.3-10.2-72-13.2-107.4l-1-5.6c-2.7-6.9-5.1-15.7-8.3-19.5-1.3-7.2-1.9-14.4-6.5-21.6l-14.9-0.3c-6.8 19.2-7.7 26.9-11.8 39.9-3.1 18.8-0.3 26.9-4.8 42-4.5 15.2-14.2 34.9-21.9 49.7-4.7 12.6-11.2 26-13.3 37.7-0.7 7.6 0.6 13.4-0.3 22.8-0.9 9.4-6.2 9-11.5 8.9-5.5 0-10.8-0.9-11-4.6-5.7-1.5-13.6 5-72.3 2.7-2.5-0.3-2.7-4.1-2.9-6.7 2.6-0.7 5.3-1.1 8.2-0.6 19.5-9.5 43.9-14.9 63.9-32.7 1.9-2.2 2.5-4.6 3.3-6.9l22.6-109.3c0-11-1.4-21.5 3.7-34.5l0.3-8.7 18.7-170.8-2.1-7.3c-2.6-6.1-0.7-12.5-0.8-18.3-2.2-17.2-5.7-34.1-9.6-50.9-2.4-5.7-4.7-12.5-6.5-19.7-1.8-0.7-2.3-2.7-1.1-4.6-1.2-5.4-2.1-11-2.7-16.3l-0.8-0.2-1.2 11c-0.5 2.7-0.4 5.3-0.9 8-3.4 19.6-7 39.1-19 73.8l-4 8.7c-9 26.1-22.2 46.4-35.8 66l-17.1-12.3c9.9-24.3 16.8-49.6 31.7-72.3l2.6-6.5c1.1-18.8 3.4-45.4 8.4-66.3l2-15.6c-5.6-25.9 6.5-43.2 29.4-47l37.8-7.4"/>
			<g id="Folder 1">
				<path id="Shape 2" class="s4" d="m163.8 113l68.2 134.9-32.6 13.3-71.6-143.4c-0.3-0.8 35.7-5.3 36-4.8z"/>
				<path id="Shape 2 copy" class="s4" d="m202.4 260.2l-71.6-143.4"/>
				<path id="Shape 2 copy 2" class="s4" d="m205.4 259.2l-71.6-143.4"/>
				<path id="Shape 2 copy 3" class="s4" d="m208.4 258.2l-71.6-143.4"/>
				<path id="Shape 2 copy 4" class="s4" d="m212.4 258.2l-71.6-143.4"/>
				<path id="Shape 2 copy 5" class="s4" d="m216.4 258.2l-71.6-143.4"/>
				<path id="Shape 2 copy 6" class="s4" d="m220.4 258.2l-71.6-143.4"/>
				<path id="Shape 2 copy 7" class="s4" d="m224.4 258.2l-71.6-143.4"/>
				<path id="Shape 2 copy 8" class="s4" d="m228.4 258.2l-71.6-143.4"/>
				<path id="Shape 2 copy 9" class="s4" d="m232.4 258.2l-71.6-143.4"/>
			</g>
			<g id="g10379">
				<path id="path10381" fill-rule="evenodd" class="s5" d="m269.4 169.2l30.3-0.6 1.2 17.3-31-0.1z"/>
				<path id="path10383" fill-rule="evenodd" class="s6" d="m269.5 171.1l30.3-0.1 0.4 5.1-30.6 0.2z"/>
				<path id="path10385" fill-rule="evenodd" class="s6" d="m269.7 178.2l30.6 0.1 0.4 5.4-30.8 0.1z"/>
			</g>
			<path id="path10177" fill-rule="evenodd" class="s5" d="m271.1 458.8c-0.4-2.7-1.6-5.5-2-8.6-4.2-34.2-4.9-92.6-15-137.4 2.9-8.2 1.7-17.4-0.4-25.1-2.2-7.6-5.3-13.6-6.8-15.8-1.2-5.3-4.5-21.1-5.7-32.3-0.1-0.6-0.5-1-1.1-1-0.3 0-0.6 0.2-0.8 0.4-0.2 0.2-0.3 0.5-0.3 0.8 1.2 11.5 4.7 27.5 5.8 32.7q0 0.2 0.2 0.4c1.1 1.6 4.4 7.8 6.6 15.4 2.1 7.5 3.2 16.5 0.3 24.1q-0.1 0.3 0 0.6c8.5 37.5 10.4 84.9 13.4 119.6 0.9 10.1 2.7 19.2 3.1 26.5"/>
			<path id="path16018" fill-rule="evenodd" class="s7" d="m145.3 457.4l16.8-171.1 88.4-0.9c1.2 4.7 6 14.4 0.5 26.6 7.6 48.3 12.4 97.3 11.4 145.3z"/>
			<path id="path10201" fill-rule="evenodd" class="s8" d="m262.4 457.6c-90.5-15.2-107-83.3-100.3-171.3l82.5-14.5c7.8 13 12.3 30.6 6.4 40.2 7.7 48.4 12.4 97.5 11.4 145.6z"/>
			<g id="g5548">
				<g id="g43293">
					<path id="path17950" fill-rule="evenodd" class="s4" d="m141.7 114.7l32.9-6.6 46.5-3.7 35.9 7.4c-6.8 34-29.8 46.2-56.5 46.8-25.3 0.5-37.1-6-45.4-14.7-7.8-8.4-12-21.4-13.4-29.2z"/>
					<path id="path22080" fill-rule="evenodd" class="s9" d="m155.5 112c4.9 24.5 19.2 33.6 45.6 32.5 26.4-1 39.5-18 41.1-34.4 0-0.3 0-0.6 0.1-1.2"/>
					<path id="path19147" fill-rule="evenodd" class="s10" d="m168 109.6c4.8 18.7 15.4 22.7 32.5 22 16.1-0.6 28-11.1 27.9-24.3 0-0.5 0.1-0.8 0.1-1.1"/>
					<path id="path20126" fill-rule="evenodd" class="s11" d="m159.8 111.4c3.6 17.1 12.7 30 40.9 28.7 24.6-1 36.4-17.7 36.9-31.5 0-0.1 0-0.4 0-0.7"/>
					<path id="path20138" fill-rule="evenodd" class="s12" d="m172.1 108.7c2.4 8.1 5.1 20.3 28.4 18.6 15.3-1.2 22.7-10.3 23.2-18.8 0.1-1 0.1-3.1 0.2-3.4"/>
					<path id="path20140" fill-rule="evenodd" class="s12" d="m163.8 110.3c4.9 23.2 22.1 26.5 37.2 25.6 20.6-1.2 31.6-13.9 32.2-27.4 0-0.3 0-1.2 0.1-1.6"/>
					<path id="path18173" fill-rule="evenodd" class="s13" d="m147.3 113.8c5.4 26 19.9 40.2 52.7 39q0.2 0 0.4 0c43.6-1.7 49.1-34.3 50.6-41.9"/>
					<path id="path21835" fill-rule="evenodd" class="s14" d="m141.7 114.7l32.9-6.6 46.5-3.7 35.9 7.4c-6.8 34-29.8 46.2-56.5 46.8-25.3 0.5-37.1-6-45.4-14.7-7.8-8.4-12-21.4-13.4-29.2z"/>
					<g id="g39880">
						<path id="path22816" fill-rule="evenodd" class="s15" d="m213.2 153.8c-0.6-1.9-0.2-5.3 0.3-7.5 1.5 1.6 3.7 4.3 4.3 6.1 1 3.5-3.5 4.7-4.6 1.4z"/>
						<path id="path22874" fill-rule="evenodd" class="s15" d="m213.8 153.6c-0.5-1.4-0.2-3.9 0.2-5.6 1.1 1.2 2.8 3.2 3.2 4.5 0.7 2.6-2.6 3.5-3.4 1.1z"/>
						<path id="path24814" fill-rule="evenodd" class="s16" d="m213.8 153.5c0.2-0.3 0.6-0.9 1.4-1.1 0.9-0.3 1.4-0.1 1.9 0.1"/>
						<path id="path26759" fill-rule="evenodd" class="s16" d="m213.6 151c0.3-0.3 0.8-0.6 1.1-0.7 0.2-0.1 0.8-0.1 1.1 0"/>
					</g>
					<g id="g39886">
						<g id="g42310">
							<path id="path39888" fill-rule="evenodd" class="s15" d="m207.5 154.7c-0.5-2 0.3-5.3 1-7.5 1.4 1.8 3.3 4.7 3.7 6.5 0.7 3.6-4 4.4-4.7 1z"/>
							<path id="path39890" fill-rule="evenodd" class="s15" d="m208.1 154.5c-0.3-1.4 0.2-3.9 0.7-5.5 1.1 1.3 2.5 3.4 2.8 4.8 0.5 2.7-2.9 3.2-3.5 0.7z"/>
							<path id="path39892" fill-rule="evenodd" class="s16" d="m208.1 154.5c0.2-0.3 0.7-0.9 1.6-1 0.8-0.2 1.3 0 1.8 0.2"/>
							<path id="path39894" fill-rule="evenodd" class="s16" d="m208.2 151.9c0.3-0.3 0.8-0.5 1.1-0.6 0.3 0 0.9 0 1.1 0.1"/>
						</g>
					</g>
					<g id="g39896">
						<path id="path39898" fill-rule="evenodd" class="s15" d="m219 152.3c-0.8-1.9-0.7-5.3-0.5-7.6 1.8 1.5 4.2 3.9 4.9 5.7 1.4 3.4-3 5-4.4 1.9z"/>
						<path id="path39900" fill-rule="evenodd" class="s15" d="m219.6 152c-0.6-1.4-0.6-3.9-0.4-5.6 1.3 1.1 3.1 2.9 3.6 4.2 1.1 2.5-2.2 3.7-3.2 1.4z"/>
						<path id="path39902" fill-rule="evenodd" class="s16" d="m219.6 151.9c0.1-0.3 0.5-1 1.3-1.3 0.8-0.3 1.4-0.2 1.8-0.1"/>
						<path id="path39904" fill-rule="evenodd" class="s16" d="m219.2 149.4c0.2-0.4 0.7-0.7 0.9-0.8 0.3-0.1 0.9-0.2 1.2-0.1"/>
					</g>
					<g id="g39906">
						<path id="path39908" fill-rule="evenodd" class="s15" d="m196 155.2c0-2 1.4-5.1 2.5-7.1 1 2 2.3 5.2 2.3 7.1 0 3.7-4.7 3.5-4.8 0z"/>
						<path id="path39910" fill-rule="evenodd" class="s15" d="m196.7 155.2c-0.1-1.5 0.9-3.8 1.8-5.3 0.7 1.5 1.7 3.8 1.7 5.3 0 2.7-3.5 2.5-3.5 0z"/>
						<path id="path39912" fill-rule="evenodd" class="s16" d="m196.7 155.1c0.2-0.2 0.9-0.7 1.7-0.7 0.9 0 1.4 0.3 1.7 0.7"/>
						<path id="path39914" fill-rule="evenodd" class="s16" d="m197.3 152.6c0.3-0.2 0.9-0.3 1.2-0.3 0.3 0 0.8 0.2 1.1 0.3"/>
					</g>
					<g id="g39916">
						<path id="path39918" fill-rule="evenodd" class="s15" d="m190.5 155.1c0.1-2 1.5-5.1 2.8-7 0.9 2 2.1 5.3 2 7.2-0.2 3.6-4.9 3.3-4.8-0.2z"/>
						<path id="path39920" fill-rule="evenodd" class="s15" d="m191.1 155.1c0.1-1.5 1.2-3.8 2.1-5.2 0.7 1.5 1.5 3.9 1.5 5.3-0.1 2.7-3.6 2.5-3.6-0.1z"/>
						<path id="path39922" fill-rule="evenodd" class="s16" d="m191.2 155c0.2-0.2 0.9-0.6 1.7-0.6 0.9 0.1 1.3 0.4 1.7 0.7"/>
						<path id="path39924" fill-rule="evenodd" class="s16" d="m191.9 152.6c0.3-0.3 0.9-0.4 1.2-0.3 0.3 0 0.8 0.2 1 0.4"/>
					</g>
					<g id="g39926">
						<g id="g42304">
							<path id="path39928" fill-rule="evenodd" class="s15" d="m201.8 155.2c-0.3-2 0.8-5.3 1.7-7.4 1.2 1.9 2.9 4.9 3.1 6.8 0.4 3.7-4.3 4-4.8 0.6z"/>
							<path id="path39930" fill-rule="evenodd" class="s15" d="m202.4 155.1c-0.2-1.5 0.6-3.9 1.2-5.5 1 1.4 2.2 3.7 2.3 5.1 0.3 2.7-3.1 2.9-3.5 0.4z"/>
							<path id="path39932" fill-rule="evenodd" class="s16" d="m202.4 155c0.3-0.3 0.8-0.8 1.7-0.9 0.8-0.1 1.4 0.2 1.8 0.5"/>
							<path id="path39934" fill-rule="evenodd" class="s16" d="m202.8 152.4c0.3-0.2 0.8-0.4 1.1-0.4 0.3-0.1 0.9 0.1 1.1 0.2"/>
						</g>
					</g>
					<g id="g40118">
						<path id="path40120" fill-rule="evenodd" class="s15" d="m152.8 135.2c1.7-1.2 5.1-1.8 7.3-1.9-1.1 2-3 4.8-4.6 5.9-3.1 1.9-5.5-2.1-2.7-4z"/>
						<path id="path40122" fill-rule="evenodd" class="s15" d="m153.2 135.7c1.2-0.9 3.7-1.3 5.4-1.4-0.8 1.4-2.2 3.5-3.4 4.3-2.3 1.5-4.1-1.5-2-2.9z"/>
						<path id="path40124" fill-rule="evenodd" class="s16" d="m153.3 135.6c0.3 0.1 1 0.4 1.5 1.1 0.5 0.7 0.5 1.3 0.4 1.8"/>
						<path id="path40126" fill-rule="evenodd" class="s16" d="m155.7 134.8c0.4 0.1 0.8 0.5 0.9 0.8 0.2 0.2 0.3 0.8 0.3 1.1"/>
					</g>
					<g id="g40128">
						<path id="path40130" fill-rule="evenodd" class="s15" d="m150.2 130.4c1.8-1 5.2-1.2 7.4-1.1-1.2 1.8-3.5 4.5-5.2 5.3-3.2 1.7-5.2-2.5-2.2-4.2z"/>
						<path id="path40132" fill-rule="evenodd" class="s15" d="m150.5 131c1.3-0.8 3.9-1 5.5-0.9-0.9 1.4-2.6 3.3-3.8 4-2.4 1.2-3.9-1.9-1.7-3.1z"/>
						<path id="path40134" fill-rule="evenodd" class="s16" d="m150.6 130.9c0.3 0.2 1 0.5 1.4 1.3 0.4 0.7 0.3 1.3 0.2 1.8"/>
						<path id="path40136" fill-rule="evenodd" class="s16" d="m153.1 130.3c0.3 0.2 0.7 0.7 0.9 0.9 0.1 0.3 0.2 0.9 0.2 1.1"/>
					</g>
					<g id="g40138">
						<path id="path40140" fill-rule="evenodd" class="s15" d="m156 139.7c1.5-1.3 4.7-2.4 7-2.9-0.8 2.1-2.3 5.2-3.8 6.5-2.7 2.4-5.7-1.2-3.2-3.6z"/>
						<path id="path40142" fill-rule="evenodd" class="s15" d="m156.5 140.2c1.1-1.1 3.5-1.8 5.1-2.2-0.6 1.6-1.7 3.9-2.7 4.8-2.1 1.8-4.3-0.9-2.4-2.6z"/>
						<path id="path40144" fill-rule="evenodd" class="s16" d="m156.5 140.1c0.4 0.1 1.1 0.2 1.7 0.9 0.6 0.6 0.7 1.2 0.7 1.7"/>
						<path id="path40146" fill-rule="evenodd" class="s16" d="m158.8 138.9c0.4 0.1 0.9 0.5 1.1 0.7 0.2 0.2 0.4 0.7 0.4 1"/>
					</g>
					<g id="g40148">
						<path id="path40150" fill-rule="evenodd" class="s15" d="m146.3 120.1c2-0.5 5.3 0 7.6 0.5-1.7 1.6-4.4 3.7-6.3 4.1-3.5 1-4.6-3.6-1.3-4.6z"/>
						<path id="path40152" fill-rule="evenodd" class="s15" d="m146.5 120.7c1.5-0.4 4 0 5.6 0.4-1.2 1.1-3.2 2.7-4.6 3-2.6 0.7-3.4-2.7-1-3.4z"/>
						<path id="path40154" fill-rule="evenodd" class="s16" d="m146.6 120.7c0.3 0.2 0.9 0.7 1.1 1.5 0.2 0.8 0.1 1.4-0.2 1.8"/>
						<path id="path40156" fill-rule="evenodd" class="s16" d="m149.2 120.6c0.3 0.3 0.6 0.8 0.6 1.1 0.1 0.3 0.1 0.9 0 1.2"/>
					</g>
					<g id="g40158">
						<path id="path40160" fill-rule="evenodd" class="s15" d="m145 114.8c1.9-0.5 5.3 0.1 7.5 0.8-1.7 1.5-4.6 3.4-6.4 3.9-3.6 0.7-4.5-3.9-1.1-4.7z"/>
						<path id="path40162" fill-rule="evenodd" class="s15" d="m145.2 115.4c1.4-0.4 3.9 0.1 5.5 0.6-1.3 1.1-3.4 2.5-4.7 2.8-2.7 0.6-3.3-2.8-0.8-3.4z"/>
						<path id="path40164" fill-rule="evenodd" class="s16" d="m145.2 115.4c0.3 0.2 0.9 0.7 1.1 1.5 0.2 0.9 0 1.4-0.3 1.9"/>
						<path id="path40166" fill-rule="evenodd" class="s16" d="m147.8 115.4c0.3 0.3 0.6 0.8 0.6 1.1 0.1 0.3 0 0.9-0.1 1.2"/>
					</g>
					<g id="g40168">
						<path id="path40170" fill-rule="evenodd" class="s15" d="m148 125.4c1.9-0.7 5.3-0.5 7.5-0.2-1.5 1.7-4 4-5.8 4.7-3.4 1.3-4.9-3.2-1.7-4.5z"/>
						<path id="path40172" fill-rule="evenodd" class="s15" d="m148.3 126c1.4-0.5 3.9-0.4 5.5-0.2-1.1 1.3-2.9 3-4.3 3.5-2.5 1-3.6-2.3-1.2-3.3z"/>
						<path id="path40174" fill-rule="evenodd" class="s16" d="m148.3 126c0.3 0.2 1 0.6 1.3 1.4 0.3 0.8 0.2 1.3 0 1.8"/>
						<path id="path40176" fill-rule="evenodd" class="s16" d="m150.9 125.7c0.3 0.2 0.6 0.7 0.7 1 0.1 0.2 0.2 0.8 0.1 1.1"/>
					</g>
					<g id="g40178">
						<path id="path40180" fill-rule="evenodd" class="s15" d="m164.3 147.2c1-1.7 3.8-3.7 5.8-4.8-0.2 2.3-0.7 5.7-1.7 7.3-2 3.1-5.9 0.5-4.1-2.5z"/>
						<path id="path40182" fill-rule="evenodd" class="s15" d="m164.8 147.5c0.8-1.3 2.9-2.7 4.3-3.5-0.1 1.6-0.5 4.1-1.2 5.3-1.5 2.3-4.4 0.4-3.1-1.8z"/>
						<path id="path40184" fill-rule="evenodd" class="s16" d="m164.9 147.5c0.3-0.1 1.1-0.2 1.8 0.3 0.7 0.4 1 1 1.1 1.4"/>
						<path id="path40186" fill-rule="evenodd" class="s16" d="m166.7 145.6c0.4 0 1 0.2 1.2 0.4 0.2 0.1 0.6 0.6 0.8 0.8"/>
					</g>
					<g id="g40188">
						<path id="path40190" fill-rule="evenodd" class="s15" d="m159.8 143.7c1.3-1.5 4.4-3 6.6-3.7-0.5 2.2-1.7 5.4-2.9 6.9-2.4 2.7-5.9-0.5-3.7-3.2z"/>
						<path id="path40192" fill-rule="evenodd" class="s15" d="m160.4 144.1c0.9-1.1 3.2-2.2 4.8-2.8-0.4 1.6-1.2 4.1-2.2 5.1-1.7 2.1-4.3-0.3-2.6-2.3z"/>
						<path id="path40194" fill-rule="evenodd" class="s16" d="m160.4 144.1c0.4 0 1.1 0.1 1.8 0.6 0.6 0.6 0.8 1.1 0.8 1.6"/>
						<path id="path40196" fill-rule="evenodd" class="s16" d="m162.5 142.6c0.4 0 0.9 0.3 1.1 0.5 0.3 0.2 0.6 0.7 0.6 1"/>
					</g>
					<g id="g40198">
						<path id="path40200" fill-rule="evenodd" class="s15" d="m169.1 149.9c0.9-1.8 3.4-4 5.3-5.3 0.1 2.2-0.1 5.7-0.9 7.4-1.6 3.3-5.8 1.1-4.4-2.1z"/>
						<path id="path40202" fill-rule="evenodd" class="s15" d="m169.7 150.2c0.6-1.4 2.5-3.1 3.9-4 0.1 1.6-0.1 4.2-0.7 5.5-1.1 2.4-4.2 0.8-3.2-1.5z"/>
						<path id="path40204" fill-rule="evenodd" class="s16" d="m169.8 150.1c0.3-0.1 1.1-0.2 1.8 0.2 0.8 0.3 1.1 0.8 1.3 1.3"/>
						<path id="path40206" fill-rule="evenodd" class="s16" d="m171.4 148.1c0.4-0.1 1 0.1 1.2 0.2 0.3 0.1 0.7 0.6 0.8 0.8"/>
					</g>
					<g id="g40208">
						<path id="path40210" fill-rule="evenodd" class="s15" d="m179.6 153.6c0.4-2 2.4-4.8 3.9-6.5 0.6 2.2 1.2 5.6 0.8 7.5-0.7 3.5-5.3 2.4-4.7-1z"/>
						<path id="path40212" fill-rule="evenodd" class="s15" d="m180.3 153.7c0.3-1.5 1.7-3.5 2.8-4.8 0.5 1.6 0.9 4.1 0.6 5.5-0.5 2.7-3.9 1.8-3.4-0.7z"/>
						<path id="path40214" fill-rule="evenodd" class="s16" d="m180.3 153.6c0.3-0.2 1-0.4 1.8-0.3 0.9 0.2 1.3 0.6 1.6 1"/>
						<path id="path40216" fill-rule="evenodd" class="s16" d="m181.4 151.3c0.4-0.2 1-0.2 1.2-0.1 0.3 0.1 0.8 0.4 1 0.6"/>
					</g>
					<g id="g40218">
						<path id="path40220" fill-rule="evenodd" class="s15" d="m174.3 152.1c0.6-1.9 2.9-4.5 4.5-6.1 0.4 2.3 0.7 5.7 0.1 7.5-1.1 3.5-5.6 1.9-4.6-1.4z"/>
						<path id="path40222" fill-rule="evenodd" class="s15" d="m174.9 152.2c0.5-1.4 2.1-3.3 3.4-4.4 0.3 1.6 0.5 4.1 0 5.5-0.8 2.6-4.1 1.4-3.4-1.1z"/>
						<path id="path40224" fill-rule="evenodd" class="s16" d="m175 152.2c0.3-0.2 1-0.4 1.8-0.1 0.9 0.2 1.2 0.7 1.5 1.1"/>
						<path id="path40226" fill-rule="evenodd" class="s16" d="m176.3 150c0.4-0.1 1-0.1 1.3 0 0.2 0.1 0.7 0.5 0.9 0.7"/>
					</g>
					<g id="g40228">
						<path id="path40230" fill-rule="evenodd" class="s15" d="m185 154.6c0.1-2 1.8-5 3.1-6.8 0.9 2 1.8 5.4 1.6 7.3-0.4 3.6-5 2.9-4.7-0.5z"/>
						<path id="path40232" fill-rule="evenodd" class="s15" d="m185.6 154.6c0.1-1.5 1.4-3.7 2.4-5.1 0.6 1.6 1.3 4 1.1 5.5-0.3 2.6-3.7 2.2-3.5-0.4z"/>
						<path id="path40234" fill-rule="evenodd" class="s16" d="m185.6 154.5c0.3-0.2 1-0.5 1.8-0.4 0.9 0 1.3 0.4 1.7 0.8"/>
						<path id="path40236" fill-rule="evenodd" class="s16" d="m186.5 152.1c0.3-0.2 0.9-0.2 1.2-0.2 0.3 0 0.8 0.3 1.1 0.5"/>
					</g>
					<g id="g40238">
						<path id="path40240" fill-rule="evenodd" class="s15" d="m229.7 147.7c-1.2-1.6-1.9-5-2.1-7.3 2 1.1 4.9 3 6 4.5 2.1 3-1.9 5.6-3.9 2.8z"/>
						<path id="path40242" fill-rule="evenodd" class="s15" d="m230.2 147.3c-0.9-1.2-1.4-3.7-1.6-5.4 1.5 0.8 3.7 2.2 4.5 3.3 1.5 2.3-1.4 4.2-2.9 2.1z"/>
						<path id="path40244" fill-rule="evenodd" class="s16" d="m230.2 147.2c0-0.3 0.3-1 1-1.5 0.7-0.5 1.3-0.5 1.8-0.5"/>
						<path id="path40246" fill-rule="evenodd" class="s16" d="m229.2 144.8c0.1-0.3 0.6-0.8 0.8-0.9 0.2-0.2 0.8-0.4 1.1-0.4"/>
					</g>
					<g id="g40248">
						<path id="path40250" fill-rule="evenodd" class="s15" d="m224.6 150.3c-1-1.7-1.4-5.1-1.4-7.4 1.9 1.2 4.6 3.3 5.5 5 1.9 3.2-2.3 5.4-4.1 2.4z"/>
						<path id="path40252" fill-rule="evenodd" class="s15" d="m225.1 150c-0.7-1.3-1-3.8-1-5.5 1.4 0.9 3.4 2.4 4.1 3.7 1.3 2.3-1.8 3.9-3.1 1.8z"/>
						<path id="path40254" fill-rule="evenodd" class="s16" d="m225.1 149.9c0.1-0.3 0.4-1 1.2-1.5 0.7-0.4 1.3-0.4 1.8-0.3"/>
						<path id="path40256" fill-rule="evenodd" class="s16" d="m224.4 147.4c0.1-0.3 0.6-0.7 0.8-0.9 0.3-0.1 0.9-0.2 1.2-0.2"/>
					</g>
					<g id="g40258">
						<g id="g43287">
							<path id="path40260" fill-rule="evenodd" class="s15" d="m234.5 144.5c-1.4-1.4-2.5-4.6-3.1-6.9 2.1 0.8 5.3 2.2 6.6 3.6 2.5 2.6-1 5.8-3.5 3.3z"/>
							<path id="path40262" fill-rule="evenodd" class="s15" d="m235 144c-1.1-1-2-3.4-2.4-5 1.6 0.5 3.9 1.6 4.9 2.6 1.9 1.9-0.7 4.2-2.5 2.4z"/>
							<path id="path40264" fill-rule="evenodd" class="s16" d="m234.9 144c0.1-0.4 0.2-1.1 0.8-1.7 0.6-0.6 1.2-0.7 1.7-0.7"/>
							<path id="path40266" fill-rule="evenodd" class="s16" d="m233.6 141.7c0.1-0.3 0.5-0.8 0.7-1 0.2-0.2 0.7-0.5 1-0.5"/>
						</g>
					</g>
					<g id="g40298">
						<path id="path40300" fill-rule="evenodd" class="s15" d="m242.9 136.4c-1.8-1-3.8-3.7-4.9-5.7 2.3 0.1 5.7 0.6 7.3 1.6 3.2 1.9 0.6 5.8-2.4 4.1z"/>
						<path id="path40302" fill-rule="evenodd" class="s15" d="m243.2 135.9c-1.3-0.8-2.8-2.8-3.6-4.3 1.6 0.1 4.1 0.5 5.4 1.2 2.3 1.4 0.4 4.3-1.8 3.1z"/>
						<path id="path40304" fill-rule="evenodd" class="s16" d="m243.1 135.8c0-0.3-0.1-1.1 0.3-1.8 0.5-0.8 1-1 1.5-1.2"/>
						<path id="path40306" fill-rule="evenodd" class="s16" d="m241.3 134c-0.1-0.4 0.1-0.9 0.3-1.2 0.1-0.2 0.6-0.6 0.8-0.7"/>
					</g>
					<g id="g40308">
						<path id="path40310" fill-rule="evenodd" class="s15" d="m239 140.8c-1.6-1.3-3.2-4.3-4-6.4 2.2 0.4 5.5 1.4 7 2.6 2.8 2.3-0.3 5.9-3 3.8z"/>
						<path id="path40312" fill-rule="evenodd" class="s15" d="m239.3 140.2c-1.1-0.9-2.3-3.1-2.9-4.7 1.6 0.4 4.1 1.1 5.2 2 2.1 1.7-0.2 4.3-2.3 2.7z"/>
						<path id="path40314" fill-rule="evenodd" class="s16" d="m239.3 140.2c0-0.4 0-1.1 0.6-1.8 0.5-0.6 1.1-0.8 1.5-0.9"/>
						<path id="path40316" fill-rule="evenodd" class="s16" d="m237.7 138.1c0.1-0.3 0.3-0.9 0.5-1.1 0.2-0.2 0.7-0.5 1-0.6"/>
					</g>
					<g id="g40318">
						<path id="path40320" fill-rule="evenodd" class="s15" d="m246 131.7c-1.8-0.9-3.9-3.5-5.1-5.5 2.2 0 5.6 0.4 7.3 1.3 3.2 1.7 0.9 5.8-2.2 4.2z"/>
						<path id="path40322" fill-rule="evenodd" class="s15" d="m246.3 131.2c-1.4-0.7-3-2.7-3.9-4.1 1.7 0 4.3 0.3 5.5 0.9 2.4 1.3 0.6 4.3-1.6 3.2z"/>
						<path id="path40324" fill-rule="evenodd" class="s16" d="m246.2 131.1c-0.1-0.3-0.2-1.1 0.2-1.8 0.4-0.8 0.9-1.1 1.4-1.2"/>
						<path id="path40326" fill-rule="evenodd" class="s16" d="m244.3 129.4c-0.1-0.4 0.1-1 0.2-1.2 0.2-0.3 0.6-0.7 0.9-0.8"/>
					</g>
					<g id="g40328">
						<path id="path40330" fill-rule="evenodd" class="s15" d="m250.6 121.8c-1.9-0.6-4.5-2.9-6-4.6 2.2-0.3 5.6-0.6 7.4 0 3.5 1.1 1.9 5.6-1.4 4.6z"/>
						<path id="path40332" fill-rule="evenodd" class="s15" d="m250.7 121.1c-1.4-0.4-3.3-2.1-4.4-3.3 1.6-0.3 4.2-0.5 5.5 0 2.6 0.8 1.4 4.1-1.1 3.3z"/>
						<path id="path40334" fill-rule="evenodd" class="s16" d="m250.7 121.1c-0.2-0.3-0.4-1-0.1-1.9 0.2-0.8 0.7-1.1 1.1-1.4"/>
						<path id="path40336" fill-rule="evenodd" class="s16" d="m248.5 119.8c-0.1-0.4-0.1-1 0-1.3 0.1-0.2 0.5-0.7 0.7-0.9"/>
					</g>
					<g id="g40338">
						<path id="path40340" fill-rule="evenodd" class="s15" d="m248.7 126.8c-1.9-0.7-4.3-3.2-5.7-5 2.3-0.2 5.7-0.2 7.5 0.6 3.4 1.4 1.4 5.7-1.8 4.4z"/>
						<path id="path40342" fill-rule="evenodd" class="s15" d="m248.9 126.2c-1.4-0.5-3.2-2.4-4.2-3.7 1.7-0.1 4.2-0.1 5.5 0.4 2.5 1.1 1.1 4.2-1.3 3.3z"/>
						<path id="path40344" fill-rule="evenodd" class="s16" d="m248.8 126.2c-0.1-0.4-0.3-1.1 0.1-1.9 0.3-0.8 0.8-1.1 1.2-1.3"/>
						<path id="path40346" fill-rule="evenodd" class="s16" d="m246.7 124.6c0-0.3 0.1-0.9 0.2-1.2 0.1-0.3 0.5-0.7 0.7-0.9"/>
					</g>
					<g id="g40348">
						<path id="path40350" fill-rule="evenodd" class="s15" d="m252.3 116.5c-2-0.4-4.7-2.3-6.4-3.9 2.1-0.6 5.5-1.2 7.4-0.8 3.6 0.8 2.4 5.4-1 4.7z"/>
						<path id="path40352" fill-rule="evenodd" class="s15" d="m252.4 115.9c-1.5-0.3-3.5-1.8-4.8-2.9 1.6-0.4 4.1-0.9 5.5-0.6 2.7 0.6 1.8 4-0.7 3.5z"/>
						<path id="path40354" fill-rule="evenodd" class="s16" d="m252.3 115.9c-0.1-0.3-0.4-1.1-0.3-1.9 0.2-0.8 0.6-1.2 1-1.5"/>
						<path id="path40356" fill-rule="evenodd" class="s16" d="m250 114.7c-0.1-0.3-0.1-0.9-0.1-1.2 0.1-0.3 0.4-0.8 0.6-1"/>
					</g>
				</g>
			</g>
			<path id="path18452" fill-rule="evenodd" class="s17" d="m175.2 108.2l-0.7 1.7c5.3 10.6 7.8 15.6 26.2 14.5l-3.1-10.5-3.4-7c-1.5-0.4-5.8-1-6.6 0.4-1.3-0.9-5.4-0.8-7.4 0.4-1.4-1.2-4.4-0.9-5 0.5z"/>
			<path id="path16062" fill-rule="evenodd" class="s18" d="m221.4 105.5l40 7.1c45.2 13.7 38.1 43.5 38.5 55.4l0.4 7.6 8.7-0.1-0.2-36.4-0.3-2.2c-4.1-21.7-8.5-46.4-22.4-64.4-11.9-15.3-28-31.9-50.3-39.6-17.7-6-24.4-6-34.8-6.5-1.4 4.9-1.2 15.8 7 39.6-12.8 22.1-14 25.3-18 31.6 7.3 9.4 7 28.6 7.6 41.1 0.5 21.8 0.6 35.6 0.6 35.6h25.6c0.1-11.8 0-20 0.1-34.7-0.9-12-0.7-24.8-2.5-34.1z"/>
			<path id="path26236" fill-rule="evenodd" class="s19" d="m268.6 447.4l-1.2 0.3 0.7 12c0.1 17.8 0.6 36.6 4.2 49.6l5.2-8.5 10.1 8.6c-3.1-31.1-9.4-22.2-19-62z"/>
			<path id="path7289" fill-rule="evenodd" class="s16" d="m273.6 516.7l5.9-8.3 7.9 6.6"/>
			<path id="path7291" fill-rule="evenodd" class="s16" d="m274.6 523.9l5.7-8 7.7 6.3"/>
			<path id="path7293" fill-rule="evenodd" class="s16" d="m275.7 531.4l5.5-7.7 7.4 6.2"/>
			<path id="path7295" fill-rule="evenodd" class="s16" d="m276.8 539.5l5.4-7.7 7.2 6"/>
			<path id="path7297" fill-rule="evenodd" class="s16" d="m277.8 546.9l5.2-7.6 7.1 6"/>
			<path id="path7299" fill-rule="evenodd" class="s16" d="m278.8 554.7l5.1-7.3 6.9 5.9"/>
			<path id="path7301" fill-rule="evenodd" class="s16" d="m280 562.4l4.9-7.1 6.7 5.7"/>
			<path id="path7303" fill-rule="evenodd" class="s16" d="m281 569.7l4.7-6.8 6.5 5.5"/>
			<path id="path7305" fill-rule="evenodd" class="s16" d="m281.9 576.6l4.7-6.6 6.2 5.3"/>
			<path id="path7307" fill-rule="evenodd" class="s16" d="m282.7 583.9l4.8-6.4 6 5"/>
			<path id="path7309" fill-rule="evenodd" class="s16" d="m283.5 591.2l4.9-6.2 5.9 4.9"/>
			<path id="path7311" fill-rule="evenodd" class="s16" d="m284.5 598.6l4.6-5.8 6.1 4.6"/>
			<path id="path7313" fill-rule="evenodd" class="s16" d="m285.5 605.9l4.6-5.7 5.8 4.2"/>
			<path id="path7319" fill-rule="evenodd" class="s16" d="m288.1 624.7l4.5-5.1 5.4 3.5"/>
			<path id="path27707" fill-rule="evenodd" class="s16" d="m287.3 618.9l4.3-5.6 5.7 3.9"/>
			<path id="path27709" fill-rule="evenodd" class="s16" d="m286.5 612.2l4.4-5.1 5.6 3.7"/>
			<path id="path27711" fill-rule="evenodd" class="s16" d="m289 631.3l4.5-5.3 5.3 4"/>
			<path id="path27713" fill-rule="evenodd" class="s16" d="m289.9 637.5l4.2-5.1 5.5 3.5"/>
			<path id="path27755" fill-rule="evenodd" class="s16" d="m291.4 649.7l4.5-5 5.7 3.5"/>
			<path id="path27757" fill-rule="evenodd" class="s16" d="m290.8 643.5l4.1-4.8 5.7 3.6"/>
			<path id="path27759" fill-rule="evenodd" class="s16" d="m291.8 651.9l10.1-1.5"/>
			<g id="g22363">
				<path id="path2718" fill-rule="evenodd" class="s18" d="m283.4 442.9c2.7-0.9 4.9-0.6 7 0l-1.2-33.7 16 1c-0.5-2.4-0.6-4.8 0-7.2l-16 1.1c3.3-6 8-11.3 9.7-20.1 3.5-17.8-5.6-17.1-11.9-17.1-6.8-0.1-16.9 1-12.7 17.8 1.9 7.8 6.6 13.9 10.4 19.4l-18-1.1c0.6 2.4 0.5 4.8 0 7.2l18-1z"/>
				<path id="path2720" fill-rule="evenodd" class="s4" d="m284.7 399.1c-3.4-4.7-6.8-9.3-7.6-15.3-1.7-12.3 4.7-13.7 9.8-13.7 4.6-0.1 11.4 0.6 8.4 13.5-1.5 6.1-3.7 11.6-6.1 15.5-1.6 2.1-3.2 1.8-4.5 0z"/>
			</g>
			<path id="path2716" fill-rule="evenodd" class="s3" d="m298.8 346.6l-19.9-0.5c-1 5-3.4 10.2-5.8 15.5-3.2 5-3.4 11.4-2.5 17.5l-0.3 5.7c8.9 1.1 0.3-10.8 5.9-15.2l0.9 8.2c1.6 1.5 3.2 2.7 4.5 0.3q2.4 2.7 4.8-0.3c1.9 2.5 3.5 0.7 5.2 0 1.8 1.4 3.6 1.9 4.9-1.3 0.3-8.7 2.9-17.1 2.3-29.9z"/>
			<g id="g13453">
				<g id="g31785">
					<path id="path31787" fill-rule="evenodd" class="s5" d="m278.8 334.9l20.8 0.2-0.9 13.1-19.8-0.8z"/>
					<path id="path31789" fill-rule="evenodd" class="s6" d="m278.8 336.8l20.6 0.3-0.2 4-20.4-0.3z"/>
				</g>
				<path id="path13439" fill-rule="evenodd" class="s5" d="m278.5 334.8l20.9 0.3-0.6 13-20.2-0.7z"/>
				<path id="path13441" fill-rule="evenodd" class="s6" d="m278.6 336.8l20.8 0.3-0.2 4-20.6-0.3z"/>
				<path id="path13451" fill-rule="evenodd" class="s6" d="m278.6 342l20.5 0.3-0.2 4.1-20.2-0.4z"/>
			</g>
			<path id="path2694" fill-rule="evenodd" class="s3" d="m67.3 322.8c-10.3 1.6-22.7 5.4-31 19l-5.1 3.1c2.7 6 8 2.6 9.7-0.5-1 2.7-0.5 4.5 2.8 4.5-0.7 2.5 0.2 4 3.2 4.1-1.6 2.5 0.3 4.7 3.1 4.2-1 3.2 0.7 4.6 2.4 4.7 4.6 1.9 25.1-23.5 27.1-25.7"/>
			<path id="path2722" fill-rule="evenodd" class="s18" d="m40.9 131.1c0.7-7.2-0.4-13.4 2.5-22.1 3.6-10.6 7.1-12.4 11.3-17.9 1.6-1.3 4.2 0 3.3 2.5-4.8 4.5-8.3 10.6-9.7 14.1 1.5-0.2 8.4-0.7 8.6 6.5v492.8c7.7 8.9 1.1 15.8 1.5 23.5-0.8 0.4-1.4 0.1-1.5-0.5-1.1-8.5 1.8-12.2-0.1-16.6-0.9-2.1-2.6-2-3.6-0.2-2.1 3.9 0.9 6.2 0.1 16.7 0 0.8-1 1-1.4 0.5-0.4-7.8-5.8-14.3 1.3-23.4v-492.2c-0.4-4-4.8-4.5-6.9 0.1-2.6 5.3-1.5 10.9-2.2 16.3-1.1 3.5-3.4 2.1-3.2-0.1z"/>
			<g id="g31791">
				<path id="path31793" fill-rule="evenodd" class="s5" d="m67.6 309.6l21.4 12.6-9.2 14-17.6-12.8z"/>
				<path id="path31795" fill-rule="evenodd" class="s6" d="m67 311.3l20.8 13.1-2.7 3.9-19.6-13z"/>
				<path id="path13461" fill-rule="evenodd" class="s6" d="m64.6 317.4l18.9 13.1-2.9 4.4-17.7-13.1z"/>
			</g>
			<path id="path17387" fill-rule="evenodd" class="s3" d="m53.8 333.6q0.3-0.3 0.7-0.5c-0.3 1.3 1 2.9 3 3l-3-3c3.5-2.2 7.2-1.6 3.9 2.3 3-2.9 9.1-2.4 3 3.4q0.1 0 0.2-0.1-0.1 0.1-0.2 0.3l-14.4 14.2c0.5-0.4 13.3-13.1 14.4-14.2-0.8 1.6 1 4.3 3.4 3.1l-3.1-3.4c5.3-3.1 5.5 1.3 2.7 3.8 3.8-2.3 4.8 1.3 1 5-3.8 4.7-8.3 9.5-12.6 14.2q-0.1 0.1-0.3 0.1c-1.7 0-3.5-1.2-2.5-4.4-2.8 0.5-4.7-1.8-3-4.3-3.1 0-4-1.5-3.3-4.1-3.2 0-4.1-1.3-3.1-4q0.2-0.4 0.4-0.6c4.6-4.9 8.8-8.5 12.7-10.7m0.8-0.6q0 0 0 0 0 0 0 0zm3.9 2.4q-0.1 0.1-0.1 0.2l-14.4 13.3c0.7-0.7 12.8-11.8 14.4-13.3-0.5 1.3 1.7 3.2 3 3.1l-2.9-3.3q0.1 0 0.1 0h-0.1zm3.3 3.2q0 0-0.1 0 0.1 0 0.1-0.1zm2.7 3.9c-0.7 1.6 0.6 3.3 2 3.6zm-2.9-3.6q0 0 0 0v-0.1q0 0 0 0.1zm-3.1-3.3q0 0 0 0 0-0.1 0.1-0.1zm-8.2 21.8l14.5-14.9"/>
			<path id="path17436" fill-rule="evenodd" class="s4" d="m58.4 335.6c-0.3 0.1-0.3 0.5-0.9 0.5-2.5 0-3.1-2.5-3-3 3.5-2.2 7.2-1.6 3.9 2.3 3-2.8 9.1-2.4 3 3.4 5.6-3.3 5.9 1.1 3.1 3.6 3.3-2.1 4.4 0.7 1.9 3.8-1.4-0.4-2.7-2-1.9-3.8-2.5 1.2-4.1-2.2-3-3.6-1.5 0.2-4-1.8-3.1-3.2z"/>
			<path id="path18425" fill-rule="evenodd" class="s20" d="m59.2 332.1c-2.4-0.9-5.6 0.9-12.6 6.8l-1.3-7.4c7.4-5 10.7-6.4 17.1-7.8"/>
			<path id="path20365" fill-rule="evenodd" class="s2" d="m59.3 332.1c-2.4-0.9-5.7 0.9-12.7 6.8m15.7-15.2c-6.4 1.4-9.8 2.7-17.1 7.9z"/>
			<g id="g10361">
				<path id="path10329" fill-rule="evenodd" class="s8" d="m299.9 163.5h9l-0.1 11.9-8.5 0.2z"/>
				<path id="path10331" fill-rule="evenodd" class="s21" d="m300.2 164.7l7.4 0.1"/>
				<path id="path10333" fill-rule="evenodd" class="s21" d="m300.3 166.5h7.2"/>
				<path id="path10335" fill-rule="evenodd" class="s21" d="m300.3 168.3l7.1 0.1"/>
				<path id="path10337" fill-rule="evenodd" class="s21" d="m300.5 170.3l7.1 0.1"/>
				<path id="path10339" fill-rule="evenodd" class="s21" d="m300.6 172.3h7.1"/>
				<path id="path10341" fill-rule="evenodd" class="s21" d="m300.7 174h7.1"/>
				<path id="path10352" fill-rule="evenodd" class="s2" d="m299.9 163.5l0.4 11.8"/>
			</g>
			<g id="g10371">
				<path id="path10373" fill-rule="evenodd" class="s5" d="m106.5 168.3l34 1.3-1.8 17.6-34.7-2.4z"/>
				<path id="path10375" fill-rule="evenodd" class="s6" d="m106.3 170.2l33.9 1.8-0.5 5.1-34.2-1.7z"/>
				<path id="path10377" fill-rule="evenodd" class="s6" d="m105.2 177.2l34.2 2-0.6 5.5-34.5-1.9z"/>
			</g>
			<g id="g10387">
			</g>
			<path id="path10403" fill-rule="evenodd" class="s8" d="m262.4 457.6c-90.5-15.2-107-83.3-100.3-171.3l82.5-14.5c7.8 13 12.4 30.5 6.5 40 7.7 48.5 12.3 97.7 11.3 145.8z"/>
			<g id="g10718">
				<path id="path10409" fill-rule="evenodd" class="s5" d="m244.3 271.6l-6.3-29.8-75.8 36.7-0.2 7.6z"/>
				<path id="path10433" fill-rule="evenodd" class="s22" d="m211.6 260.5l6.6-2.7 1.7 4.1-6.7 2.4z"/>
				<path id="path10427" fill-rule="evenodd" class="s23" d="m220.9 256.7l6-2.6 2 4.8-6.2 2.1z"/>
				<path id="path10417" fill-rule="evenodd" class="s22" d="m229.6 253.2l6.9-2.9 2.1 5-7.1 2.5z"/>
				<path id="path10411" fill-rule="evenodd" class="s4" d="m238 241.7l0.8 3.7-73.2 32.1-3.2 0.9z"/>
				<path id="path10457" fill-rule="evenodd" class="s22" d="m174.9 275.5l6-2.4 0.9 2.3-6.1 2.2z"/>
				<path id="path10451" fill-rule="evenodd" class="s23" d="m183.9 271.9l6.5-2.7 1 2.7-6.5 2.3z"/>
				<path id="path10445" fill-rule="evenodd" class="s22" d="m193 268.2l6.5-2.8 1.4 3.3-6.9 2.3z"/>
				<path id="path10439" fill-rule="evenodd" class="s24" d="m202.4 264.2l6.7-2.8 1.6 3.9-6.9 2.4z"/>
				<path id="path10413" fill-rule="evenodd" class="s25" d="m240.6 254.8l-66.9 23.6"/>
				<path id="path10415" fill-rule="evenodd" class="s25" d="m239.4 249l-67.8 27.7"/>
				<path id="path10419" fill-rule="evenodd" class="s25" d="m228.7 253.5l1.9 4.6"/>
				<path id="path10421" fill-rule="evenodd" class="s25" d="m227.8 253.8l1.9 4.7"/>
				<path id="path10423" fill-rule="evenodd" class="s25" d="m238.3 249.5l2.1 5.3"/>
				<path id="path10425" fill-rule="evenodd" class="s25" d="m237.4 249.9l2.1 5.2"/>
				<path id="path10429" fill-rule="evenodd" class="s25" d="m220 257.1l1.9 4.2"/>
				<path id="path10431" fill-rule="evenodd" class="s25" d="m219.1 257.4l1.8 4.2"/>
				<path id="path10435" fill-rule="evenodd" class="s25" d="m210.8 260.8l1.5 3.7"/>
				<path id="path10437" fill-rule="evenodd" class="s25" d="m209.9 261.1l1.7 3.8"/>
				<path id="path10441" fill-rule="evenodd" class="s25" d="m201.2 264.7l1.5 3.2"/>
				<path id="path10443" fill-rule="evenodd" class="s25" d="m200.4 265l1.4 3.3"/>
				<path id="path10447" fill-rule="evenodd" class="s25" d="m192.1 268.5l1 2.8"/>
				<path id="path10449" fill-rule="evenodd" class="s25" d="m191.2 268.9l1.1 2.8"/>
				<path id="path10453" fill-rule="evenodd" class="s25" d="m183.1 272.2l0.8 2.5"/>
				<path id="path10455" fill-rule="evenodd" class="s25" d="m182.1 272.6l0.9 2.5"/>
				<path id="path10459" fill-rule="evenodd" class="s25" d="m174.1 275.8l0.7 2.1"/>
				<path id="path10461" fill-rule="evenodd" class="s25" d="m173.3 276.1l0.8 2.1"/>
				<path id="path10467" fill-rule="evenodd" class="s22" d="m232 263.8l7.2-2.1 1.5 5.2-7.4 1.6z"/>
				<path id="path10477" fill-rule="evenodd" class="s23" d="m223 266.2l6.2-1.8 1.5 4.9-6.4 1.4z"/>
				<path id="path10483" fill-rule="evenodd" class="s22" d="m213.3 269l6.9-2 1.2 4.3-7 1.6z"/>
				<path id="path10489" fill-rule="evenodd" class="s24" d="m203.7 271.6l7-2 1.2 4-7.1 1.7z"/>
				<path id="path10495" fill-rule="evenodd" class="s22" d="m193.9 274.6l6.8-2.1 1 3.4-7.1 1.6z"/>
				<path id="path10501" fill-rule="evenodd" class="s23" d="m184.5 277.1l6.7-1.9 0.7 2.9-6.7 1.5z"/>
				<path id="path10507" fill-rule="evenodd" class="s22" d="m175.5 279.7l6-1.6 0.7 2.3-6.1 1.4z"/>
				<path id="path10463" fill-rule="evenodd" class="s25" d="m243.1 266.5l-69.5 16"/>
				<path id="path10465" fill-rule="evenodd" class="s25" d="m241.9 260.8l-69.9 19.8"/>
				<path id="path10469" fill-rule="evenodd" class="s25" d="m231.1 264l1.4 4.8"/>
				<path id="path10471" fill-rule="evenodd" class="s25" d="m230.2 264.1l1.3 4.9"/>
				<path id="path10473" fill-rule="evenodd" class="s25" d="m241 261.1l1.5 5.4"/>
				<path id="path10475" fill-rule="evenodd" class="s25" d="m240.1 261.3l1.6 5.5"/>
				<path id="path10479" fill-rule="evenodd" class="s25" d="m222.1 266.6l1.4 4.3"/>
				<path id="path10481" fill-rule="evenodd" class="s25" d="m221.1 266.8l1.4 4.3"/>
				<path id="path10485" fill-rule="evenodd" class="s25" d="m212.5 269.2l1.1 3.9"/>
				<path id="path10487" fill-rule="evenodd" class="s25" d="m211.6 269.4l1.2 4"/>
				<path id="path10491" fill-rule="evenodd" class="s25" d="m202.5 272l1.2 3.4"/>
				<path id="path10493" fill-rule="evenodd" class="s25" d="m201.7 272.3l1 3.4"/>
				<path id="path10497" fill-rule="evenodd" class="s25" d="m193.1 274.8l0.7 2.9"/>
				<path id="path10499" fill-rule="evenodd" class="s25" d="m192.1 275.1l0.8 2.8"/>
				<path id="path10503" fill-rule="evenodd" class="s25" d="m183.6 277.4l0.6 2.5"/>
				<path id="path10505" fill-rule="evenodd" class="s25" d="m182.6 277.7l0.7 2.6"/>
				<path id="path10509" fill-rule="evenodd" class="s25" d="m174.9 279.8l0.6 2.2"/>
				<path id="path10511" fill-rule="evenodd" class="s25" d="m174.2 280l0.5 2.1"/>
				<path id="path10513" fill-rule="evenodd" class="s2" d="m174.4 278.8l66.7-22.2"/>
				<path id="path10515" fill-rule="evenodd" class="s2" d="m174.6 279.3l66.9-20.5"/>
				<path id="path10517" fill-rule="evenodd" class="s2" d="m173.8 283.1l69.6-15.3"/>
				<path id="path10519" fill-rule="evenodd" class="s2" d="m172.7 283.8l71.2-13.8"/>
				<path id="path10521" fill-rule="evenodd" class="s2" d="m168.3 276.8l70.6-30.3"/>
				<path id="path10523" fill-rule="evenodd" class="s2" d="m170.1 276.7l69.1-29"/>
				<path id="path10525" fill-rule="evenodd" class="s5" d="m161.9 286.2c8-1.8 13.8-1 12.6-6.9-0.8-4.3-8.2-2.3-12.3-0.9z"/>
			</g>
			<g id="g18488">
				<path id="path11979" fill-rule="evenodd" class="s7" d="m145.3 457.5l17-170.3 88.6-0.1c1.2 4.7 5.3 13.4 0.3 26 7.7 48.3 12.3 97.1 11.2 145.1z"/>
				<path id="path11981" fill-rule="evenodd" class="s8" d="m262.2 457.8c-90.5-15.2-106.9-83.4-100.2-171.3l82.5-14.5c7.8 13 12.5 31.4 6.6 40.9 7.7 48.5 12.1 96.8 11.1 144.9z"/>
				<path id="path12063" fill-rule="evenodd" class="s15" d="m244.3 272l-66.8 130.9"/>
				<path id="path12065" fill-rule="evenodd" class="s15" d="m240.3 272.7l-64.7 126.7"/>
				<path id="path12067" fill-rule="evenodd" class="s15" d="m173.9 395.6l62.4-122.2"/>
				<path id="path12069" fill-rule="evenodd" class="s15" d="m232.3 274.1l-60.1 117.6"/>
				<path id="path12071" fill-rule="evenodd" class="s15" d="m170.7 387.6l57.6-112.8"/>
				<path id="path12073" fill-rule="evenodd" class="s15" d="m224.3 275.5l-55.1 107.9"/>
				<path id="path12075" fill-rule="evenodd" class="s15" d="m167.9 378.9l52.4-102.7"/>
				<path id="path12077" fill-rule="evenodd" class="s15" d="m216.3 276.9l-49.7 97.3"/>
				<path id="path12079" fill-rule="evenodd" class="s15" d="m165.5 369.4l46.8-91.8"/>
				<path id="path12081" fill-rule="evenodd" class="s15" d="m208.3 278.4l-43.8 85.8"/>
				<path id="path12083" fill-rule="evenodd" class="s15" d="m163.5 359l40.8-79.9"/>
				<path id="path12085" fill-rule="evenodd" class="s15" d="m200.3 279.7l-37.6 73.6"/>
				<path id="path12087" fill-rule="evenodd" class="s15" d="m162 347.5l34.3-67"/>
				<path id="path12089" fill-rule="evenodd" class="s15" d="m192.3 281.2l-30.8 60.3"/>
				<path id="path12091" fill-rule="evenodd" class="s15" d="m161.1 335.2l27.2-53.3"/>
				<path id="path12093" fill-rule="evenodd" class="s15" d="m184.3 282.6l-23.5 45.9"/>
				<path id="path12095" fill-rule="evenodd" class="s15" d="m160.7 321.7l19.6-38.5"/>
				<path id="path12101" fill-rule="evenodd" class="s15" d="m176.3 284l-15.6 30.5"/>
				<path id="path12103" fill-rule="evenodd" class="s15" d="m160.9 307l11.4-22.3"/>
				<path id="path12105" fill-rule="evenodd" class="s15" d="m168.3 285.4l-7.1 14"/>
				<path id="path12107" fill-rule="evenodd" class="s15" d="m161.7 291.2l2.6-5.1"/>
				<path id="path12109" fill-rule="evenodd" class="s15" d="m246.3 275.2l-66.9 131.1"/>
				<path id="path12111" fill-rule="evenodd" class="s15" d="m181.3 409.6l66.8-130.7"/>
				<path id="path12113" fill-rule="evenodd" class="s15" d="m249.7 282.8l-66.3 129.9"/>
				<path id="path12115" fill-rule="evenodd" class="s15" d="m185.5 415.7l65.7-128.7"/>
				<path id="path12117" fill-rule="evenodd" class="s15" d="m252.4 291.7l-64.7 126.8"/>
				<path id="path12119" fill-rule="evenodd" class="s15" d="m189.9 421.3l63.5-124.4"/>
				<path id="path12121" fill-rule="evenodd" class="s15" d="m253.7 303.4l-61.4 120.4"/>
				<path id="path12123" fill-rule="evenodd" class="s15" d="m194.7 426.3l56.8-111.4"/>
				<path id="path12125" fill-rule="evenodd" class="s15" d="m252.3 320.4l-55.2 108.2"/>
				<path id="path12127" fill-rule="evenodd" class="s15" d="m199.6 430.9l53.5-104.9"/>
				<path id="path12129" fill-rule="evenodd" class="s15" d="m254 331.5l-51.9 101.6"/>
				<path id="path12131" fill-rule="evenodd" class="s15" d="m204.7 435l50-97.8"/>
				<path id="path12133" fill-rule="evenodd" class="s15" d="m255.5 342.8l-48.1 94.2"/>
				<path id="path12135" fill-rule="evenodd" class="s15" d="m210.1 438.8l46-90.2"/>
				<path id="path12137" fill-rule="evenodd" class="s15" d="m256.9 354.3l-44 86.2"/>
				<path id="path12139" fill-rule="evenodd" class="s15" d="m215.7 442.2l41.9-82.1"/>
				<path id="path12141" fill-rule="evenodd" class="s15" d="m258.1 366.2l-39.6 77.6"/>
				<path id="path12143" fill-rule="evenodd" class="s15" d="m221.4 445.2l37.4-73.3"/>
				<path id="path12145" fill-rule="evenodd" class="s15" d="m259.3 378.1l-35 68.5"/>
				<path id="path12147" fill-rule="evenodd" class="s15" d="m227.3 447.9l32.6-63.8"/>
				<path id="path12149" fill-rule="evenodd" class="s15" d="m260.3 390.4l-30 58.8"/>
				<path id="path12151" fill-rule="evenodd" class="s15" d="m233.3 450.4l27.5-53.8"/>
				<path id="path12153" fill-rule="evenodd" class="s15" d="m261.2 402.9l-24.8 48.5"/>
				<path id="path12155" fill-rule="evenodd" class="s15" d="m239.5 452.5l22-43.1"/>
				<path id="path12157" fill-rule="evenodd" class="s15" d="m261.8 416l-19.1 37.4"/>
				<path id="path12159" fill-rule="evenodd" class="s15" d="m245.9 454.3l16.2-31.8"/>
				<path id="path12161" fill-rule="evenodd" class="s15" d="m262.3 429.3l-13.2 25.8"/>
				<path id="path12163" fill-rule="evenodd" class="s15" d="m252.3 455.9l10-19.6"/>
				<path id="path12165" fill-rule="evenodd" class="s15" d="m262.4 443.3l-6.8 13.3"/>
				<path id="path12167" fill-rule="evenodd" class="s15" d="m259 457.2l3.3-6.6"/>
				<path id="path15477" fill-rule="evenodd" class="s2" d="m262.1 457.8c-90.4-15.2-106.9-83.4-100.1-171.3l82.4-14.5c7.8 13 12.6 31.4 6.7 40.9 7.6 48.5 12.1 96.8 11 144.9z"/>
			</g>
			<path id="path18544" fill-rule="evenodd" class="s26" d="m165.4 269.8c0 0.5-0.1 1-0.3 1.4-0.1 0.4-0.3 0.6-0.5 0.6q-0.5 0-0.6-0.6c-0.2-0.4-0.3-0.9-0.3-1.4q0-0.9 0.3-1.5c0.1-0.4 0.3-0.6 0.5-0.6 0.2 0 0.5 0.2 0.6 0.6q0.3 0.6 0.3 1.5z"/>
			<g id="g23213">
				<path id="path19439" fill-rule="evenodd" class="s8" d="m198.1 163.4h25.7v11.8h-25.7z"/>
				<path id="path10305" fill-rule="evenodd" class="s27" d="m199.7 164.5l22.3 0.1"/>
				<path id="path10307" fill-rule="evenodd" class="s27" d="m199.6 166.6l22.4 0.1"/>
				<path id="path10309" fill-rule="evenodd" class="s27" d="m199.7 168.5l22.3 0.1"/>
				<path id="path10311" fill-rule="evenodd" class="s27" d="m199.7 170.3l22.3 0.1"/>
				<path id="path10313" fill-rule="evenodd" class="s27" d="m199.9 172.2h22.3"/>
				<path id="path10315" fill-rule="evenodd" class="s27" d="m199.8 174.1l22.4-0.2"/>
			</g>
			<path id="path2239" fill-rule="evenodd" class="s28" d="m175.1 108.3c1.3-0.9 3.2-1.5 5.8 0 2.7-1.1 4.4-1.2 7-0.2 2.1-1.4 4.3-1.9 6.4-1.2-1.4-12.9 8.1-19.2 11-27 6.8-16.5-2.6-35.3-4.3-53.4-16.5 0-24.9 8.3-34.9 18.2 0.2 1.9 2 3.4 3.6 4.9-1.1 3 1.9 5.7 3.9 8.4 5.6-0.2 11.2-1.2 17.1-0.7 2.2 0.2 3.8 1.7 4.1 3.6 2.5 15.8-2.4 19-12 30.3-4.1 5.2-7.8 9.5-7.7 17.1z"/>
			<path id="path2249" fill-rule="evenodd" class="s29" d="m162.4 56.9c-7 3.1-45.2 15.4-55 54.9"/>
			<path id="path2251" class="s30" d="m172.1 43.8c0 0.5 0.2 1.1 0.5 1.5 0.4 0.4 0.9 0.6 1.4 0.6 0.5 0 1-0.2 1.4-0.6 0.4-0.4 0.6-1 0.6-1.5q0-0.9-0.6-1.5c-0.4-0.4-0.9-0.6-1.4-0.6-0.5 0-1 0.2-1.4 0.6-0.3 0.4-0.5 0.9-0.5 1.5z"/>
			<path id="path2253" class="s31" d="m169.1 48.5q0 0.4 0.3 0.7 0.3 0.3 0.6 0.3 0.4 0 0.7-0.3 0.2-0.3 0.2-0.7 0-0.5-0.2-0.8-0.3-0.3-0.7-0.3-0.3 0-0.6 0.3-0.3 0.3-0.3 0.8z"/>
			<path id="path4201" fill-rule="evenodd" class="s18" d="m180.9 93.7c-4.5 0.1-8.6 0.8-12.6 3.1-15.8 11.3-16 24.7-17.4 37.8-0.1 0.4 0 39.7 0 40.1h25.8c0 0 0.1-39.8 0.1-40.1 0.7-14.2-3.6-28.8 4.1-40.9z"/>
			<g id="g11137">
				<path id="path11139" fill-rule="evenodd" class="s8" d="m150.9 163h25.8v11.8h-25.8z"/>
				<path id="path11141" fill-rule="evenodd" class="s27" d="m152.5 164.2l22.3 0.1"/>
				<path id="path11143" fill-rule="evenodd" class="s27" d="m152.5 166.2l22.3 0.1"/>
				<path id="path11145" fill-rule="evenodd" class="s27" d="m152.6 168.1l22.3 0.1"/>
				<path id="path11147" fill-rule="evenodd" class="s27" d="m152.6 170l22.3 0.1"/>
				<path id="path11149" fill-rule="evenodd" class="s27" d="m152.7 171.9l22.3-0.1"/>
				<path id="path11151" fill-rule="evenodd" class="s27" d="m152.6 173.8l22.4-0.2"/>
			</g>
		</g>
	</g>
</svg>