<svg version="1.2" xmlns="http://www.w3.org/2000/svg" viewBox="0 0 350 690" width="350" height="690">
	<title>Khnum (4)</title>
	<style>
		.s0 { fill: #fac53a;stroke: #c13c1b;stroke-width: .4 } 
		.s1 { fill: none;stroke: #000000;stroke-width: .4 } 
		.s2 { fill: #a13c2a;stroke: #000000;stroke-linecap: round;stroke-linejoin: round;stroke-width: .4 } 
		.s3 { fill: #fac53a;stroke: #000000;stroke-linecap: round;stroke-linejoin: round;stroke-width: .4 } 
		.s4 { fill: #0044aa;stroke: #000000;stroke-linecap: round;stroke-linejoin: round;stroke-width: .4 } 
		.s5 { fill: #ffffff;stroke: #000000;stroke-width: .4 } 
		.s6 { fill: #fac53a;stroke: #000000;stroke-width: .4 } 
		.s7 { fill: #ffffff;stroke: #000000;stroke-linecap: round;stroke-linejoin: round;stroke-width: .4 } 
		.s8 { fill: none;stroke: #0044aa;stroke-linejoin: round;stroke-width: 4.8 } 
		.s9 { fill: none;stroke: #308d57;stroke-width: 3.7 } 
		.s10 { fill: none;stroke: #c13c1b;stroke-width: 3 } 
		.s11 { fill: none;stroke: #0044aa;stroke-width: 4.4 } 
		.s12 { fill: none;stroke: #fac53a;stroke-width: 10.9 } 
		.s13 { fill: none;stroke: #000000;stroke-linecap: round;stroke-linejoin: round;stroke-width: .5 } 
		.s14 { fill: none;stroke: #c13c1b;stroke-width: .4 } 
		.s15 { fill: none;stroke: #c13c1b;stroke-linecap: round;stroke-linejoin: round;stroke-width: .4 } 
		.s16 { fill: #0044aa;stroke: #000000;stroke-width: .4 } 
		.s17 { fill: #002255;stroke: #000000;stroke-linecap: round;stroke-linejoin: round;stroke-width: .4 } 
		.s18 { fill: #a13c2a } 
		.s19 { fill: #0044aa;stroke: #0044aa;stroke-width: .4 } 
		.s20 { fill: #c13c1b;stroke: #c13c1b;stroke-width: .4 } 
		.s21 { fill: #308d57 } 
		.s22 { fill: none;stroke: #000000;stroke-linecap: round;stroke-linejoin: round;stroke-width: .4 } 
		.s23 { opacity: .7;fill: #000000 } 
		.s24 { fill: #000000;stroke: #000000;stroke-width: .4 } 
		.s25 { fill: #308d57;stroke: #000000;stroke-width: .5 } 
		.s26 { fill: #16502d;stroke: #000000;stroke-width: .5 } 
		.s27 { fill: none;stroke: #000000;stroke-linecap: round;stroke-linejoin: round;stroke-width: .6 } 
		.s28 { fill: #ffffff;stroke: #000000;stroke-linecap: round;stroke-linejoin: round;stroke-width: 1.1 } 
		.s29 { fill: #c13c1b;stroke: #000000;stroke-linecap: round;stroke-linejoin: round;stroke-width: .6 } 
		.s30 { fill: #000000;stroke: #000000;stroke-linecap: round;stroke-linejoin: round;stroke-width: .4 } 
		.s31 { fill: #a13c2a;stroke: #000000;stroke-width: .4 } 
		.s32 { fill: none;stroke: #c13c1b;stroke-linecap: round;stroke-linejoin: round;stroke-width: .7 } 
		.s33 { fill: none;stroke: #c13c1b;stroke-linecap: round;stroke-linejoin: round;stroke-width: .6 } 
	</style>
	<g id="layer1">
		<g id="g35354">
			<g id="g35736">
				<path id="path22350" fill-rule="evenodd" class="s0" d="m273.4 469.9l-0.3 12.3c0.1 17.7 0.6 36.6 4.2 49.6l19.3 143.7 11.1-1.2c-8.3-48.1-10.1-94.9-15.1-142.4-3-31.1-9.5-22.2-19.2-62z"/>
				<path id="path5160" fill-rule="evenodd" class="s1" d="m304.7 192.8h-30.1"/>
				<path id="path5162" fill-rule="evenodd" class="s1" d="m305.3 201.9l-30.3 0.4"/>
				<path id="path16040" fill-rule="evenodd" class="s2" d="m223.3 131.9l39.7 0.7c19.4 6.2 34.9 13.5 40.9 34.5 2.2 12.2 0.2 16.5 0.9 25.7l0.7 9.6c1.3 20.6 1.8 41.4 0.3 62.6-1.3 18.5 2.7 38.1 3.1 56.6-0.7 15.4-4.4 26.9-5.1 40.4l-19.3-1.5c-8.9-50-3.8-66.3-5.9-89.3-3.2-28-3.2-55.2-4.3-82.7-11.9 21.4-24.4 42.2-31.2 70.4v4.6l6.5 30c3.4 4.8 13.4 27 6.2 39.6 8.2 48.4 12.1 97.9 11.7 146.3l0.6 15.7c1.3 21.5 9.9 42.9 9.6 66.4-0.4 23.5-4.6 46.5-7.8 68.9-1.1 25.8 2.4 30.4 1.5 39.8-0.9 9.4-6.1 9-11.5 8.9-5.5 0-10.8-0.9-11-4.6-5.6-1.5-13.6 5-72.2 2.7-2.6-0.3-2.8-4.1-3-6.7 2.6-0.7 5.3-1.1 8.2-0.6 19.5-9.5 38.7-13.6 58.7-31.5 1-1 1.8-2.3 1.6-5.9-2.6-35.3-10.3-72-13.3-107.4l-1-5.6c-2.7-6.9-5.1-15.7-8.3-19.5-1.3-7.2-1.8-14.4-6.5-21.6l-14.9-0.3c-6.8 19.2-7.7 26.9-11.7 39.9-3.2 18.8-0.4 26.9-4.9 42-4.5 15.2-14.2 34.9-21.9 49.7-4.7 12.6-11.2 26-13.3 37.7-0.6 7.6 0.6 13.4-0.3 22.8-0.9 9.4-6.1 9-11.5 8.9-5.5 0-10.8-0.9-11-4.6-5.6-1.5-13.6 5-72.3 2.7-2.5-0.3-2.7-4.1-2.9-6.7 2.6-0.7 5.3-1.1 8.2-0.6 19.5-9.5 43.9-14.9 63.9-32.7 1.9-2.2 2.6-4.6 3.3-6.9l22.6-109.3c0.1-11-1.3-21.5 3.7-34.5l0.3-8.7 18.7-170.8-2.1-7.3c-2.6-6.1-0.7-12.5-0.8-18.3-2.2-17.2-5.7-34.1-9.6-50.9-2.4-5.7-4.7-12.5-6.5-19.7-1.8-0.7-2.3-2.7-1.1-4.6-1.2-5.4-2.1-11-2.7-16.3l-0.8-0.2-1.2 11c-0.5 2.7-0.4 5.3-0.9 8-3.4 19.6-7 39.1-19 73.8l-3.9 8.7c-9.1 26.1-22.3 46.4-35.9 66l-17.1-12.3c9.9-24.3 16.8-49.6 31.7-72.3l2.6-6.5c1.1-18.8 3.4-45.4 8.5-66.3l1.9-15.6c-5.6-25.9 6.5-43.2 29.4-47l37.9-7.4"/>
				<g id="g10379">
					<path id="path10381" fill-rule="evenodd" class="s3" d="m274.3 190.6l30.3-0.6 1.2 17.3-31-0.1z"/>
					<path id="path10383" fill-rule="evenodd" class="s4" d="m274.4 192.5l30.3-0.1 0.4 5.1-30.6 0.2z"/>
					<path id="path10385" fill-rule="evenodd" class="s4" d="m274.6 199.6l30.6 0.1 0.4 5.4-30.8 0.1z"/>
				</g>
				<path id="path10177" fill-rule="evenodd" class="s3" d="m276.1 480.2c-0.5-2.7-1.7-5.5-2.1-8.6-4.2-34.2-4.9-92.6-15-137.4 2.9-8.2 1.8-17.4-0.4-25.1-2.2-7.6-5.3-13.6-6.8-15.8-1.2-5.3-4.5-21.1-5.7-32.3 0-0.6-0.5-1-1.1-1-0.3 0-0.6 0.1-0.8 0.4-0.2 0.2-0.3 0.5-0.2 0.8 1.2 11.5 4.6 27.5 5.7 32.7q0 0.2 0.2 0.4c1.1 1.6 4.4 7.8 6.6 15.4 2.1 7.5 3.2 16.5 0.3 24.1q-0.1 0.3 0 0.6c8.5 37.5 10.4 84.9 13.4 119.6 0.9 10.1 2.7 19.2 3.1 26.5"/>
				<path id="path16018" fill-rule="evenodd" class="s5" d="m150.2 478.8l16.9-171.1 88.3-0.9c1.2 4.7 6.1 14.4 0.5 26.6 7.6 48.3 12.4 97.3 11.4 145.3z"/>
				<path id="path10201" fill-rule="evenodd" class="s6" d="m267.3 479c-90.5-15.2-107-83.4-100.2-171.3l82.4-14.5c7.8 13 12.3 30.6 6.4 40.1 7.7 48.5 12.4 97.6 11.4 145.7z"/>
				<g id="g5548">
					<g id="g43293">
						<path id="path17950" fill-rule="evenodd" class="s7" d="m146.6 136.1l32.9-6.6 46.5-3.7 35.9 7.4c-6.8 34-29.8 46.2-56.5 46.8-25.3 0.5-37.1-6-45.4-14.7-7.8-8.4-12-21.5-13.4-29.2z"/>
						<path id="path22080" fill-rule="evenodd" class="s8" d="m160.4 133.4c4.9 24.5 19.2 33.6 45.6 32.5 26.4-1 39.5-18 41.1-34.4 0-0.3 0-0.6 0.2-1.2"/>
						<path id="path19147" fill-rule="evenodd" class="s9" d="m172.9 131c4.8 18.7 15.4 22.7 32.6 22 16-0.6 27.9-11.1 27.8-24.3 0-0.5 0.2-0.9 0.1-1.2"/>
						<path id="path20126" fill-rule="evenodd" class="s10" d="m164.7 132.8c3.6 17.1 12.7 30 41 28.7 24.5-1 36.3-17.7 36.8-31.6 0 0 0-0.3 0-0.6"/>
						<path id="path20138" fill-rule="evenodd" class="s11" d="m177 130.1c2.4 8.1 5.2 20.3 28.4 18.6 15.3-1.2 22.7-10.3 23.3-18.8 0-1 0-3.1 0.1-3.4"/>
						<path id="path20140" fill-rule="evenodd" class="s11" d="m168.7 131.7c4.9 23.2 22.1 26.5 37.2 25.6 20.6-1.2 31.6-13.9 32.2-27.4 0-0.3 0-1.2 0.1-1.6"/>
						<path id="path18173" fill-rule="evenodd" class="s12" d="m152.2 135.2c5.4 26 19.9 40.2 52.7 39q0.2 0 0.4 0 0 0 0 0c43.6-1.7 49.1-34.3 50.7-41.9"/>
						<path id="path21835" fill-rule="evenodd" class="s13" d="m146.6 136.1l32.9-6.6 46.5-3.7 35.9 7.4c-6.8 34-29.8 46.2-56.5 46.8-25.3 0.5-37.1-6-45.4-14.7-7.8-8.4-12-21.5-13.4-29.2z"/>
						<g id="g39880">
							<path id="path22816" fill-rule="evenodd" class="s14" d="m218.1 175.2c-0.6-1.9-0.2-5.3 0.3-7.5 1.5 1.6 3.7 4.3 4.3 6.1 1 3.5-3.5 4.7-4.6 1.4z"/>
							<path id="path22874" fill-rule="evenodd" class="s14" d="m218.7 175c-0.5-1.4-0.2-3.9 0.2-5.6 1.1 1.2 2.8 3.2 3.2 4.5 0.8 2.6-2.6 3.5-3.4 1.1z"/>
							<path id="path24814" fill-rule="evenodd" class="s15" d="m218.7 174.9c0.2-0.3 0.6-0.9 1.5-1.1 0.8-0.3 1.3-0.1 1.8 0.1"/>
							<path id="path26759" fill-rule="evenodd" class="s15" d="m218.5 172.4c0.3-0.4 0.8-0.6 1.1-0.7 0.2-0.1 0.8-0.1 1.1 0"/>
						</g>
						<g id="g39886">
							<g id="g42310">
								<path id="path39888" fill-rule="evenodd" class="s14" d="m212.4 176.1c-0.4-2 0.3-5.3 1-7.5 1.4 1.8 3.3 4.6 3.7 6.5 0.7 3.6-3.9 4.4-4.7 1z"/>
								<path id="path39890" fill-rule="evenodd" class="s14" d="m213 175.9c-0.3-1.4 0.2-3.9 0.7-5.5 1.1 1.3 2.5 3.4 2.8 4.8 0.5 2.7-2.9 3.2-3.5 0.7z"/>
								<path id="path39892" fill-rule="evenodd" class="s15" d="m213 175.9c0.2-0.3 0.7-0.9 1.6-1 0.8-0.2 1.3 0 1.8 0.2"/>
								<path id="path39894" fill-rule="evenodd" class="s15" d="m213.1 173.3c0.3-0.3 0.8-0.5 1.1-0.6 0.3-0.1 0.9 0 1.1 0.1"/>
							</g>
						</g>
						<g id="g39896">
							<path id="path39898" fill-rule="evenodd" class="s14" d="m223.9 173.7c-0.8-1.9-0.7-5.3-0.5-7.6 1.8 1.5 4.2 3.9 4.9 5.7 1.4 3.4-3 5-4.4 1.9z"/>
							<path id="path39900" fill-rule="evenodd" class="s14" d="m224.5 173.4c-0.6-1.4-0.6-3.9-0.4-5.6 1.3 1.1 3.1 2.9 3.7 4.2 1 2.5-2.3 3.7-3.3 1.4z"/>
							<path id="path39902" fill-rule="evenodd" class="s15" d="m224.5 173.3c0.1-0.3 0.5-1 1.3-1.3 0.8-0.3 1.4-0.2 1.9-0.1"/>
							<path id="path39904" fill-rule="evenodd" class="s15" d="m224.1 170.8c0.2-0.4 0.7-0.7 0.9-0.8 0.3-0.1 0.9-0.2 1.2-0.1"/>
						</g>
						<g id="g39906">
							<path id="path39908" fill-rule="evenodd" class="s14" d="m200.9 176.6c0-2 1.4-5.1 2.5-7.1 1 2 2.3 5.2 2.3 7.1 0 3.7-4.7 3.5-4.8 0z"/>
							<path id="path39910" fill-rule="evenodd" class="s14" d="m201.6 176.6c-0.1-1.5 1-3.8 1.8-5.3 0.8 1.5 1.7 3.8 1.7 5.3 0 2.7-3.5 2.5-3.5 0z"/>
							<path id="path39912" fill-rule="evenodd" class="s15" d="m201.6 176.5c0.2-0.2 0.9-0.7 1.7-0.7 0.9 0 1.4 0.3 1.7 0.7"/>
							<path id="path39914" fill-rule="evenodd" class="s15" d="m202.2 174c0.3-0.2 0.9-0.4 1.2-0.3 0.3 0 0.8 0.2 1.1 0.3"/>
						</g>
						<g id="g39916">
							<path id="path39918" fill-rule="evenodd" class="s14" d="m195.4 176.5c0.1-2 1.6-5.1 2.8-7 0.9 2 2.1 5.3 2 7.2-0.1 3.6-4.9 3.3-4.8-0.2z"/>
							<path id="path39920" fill-rule="evenodd" class="s14" d="m196.1 176.5c0-1.5 1.1-3.8 2-5.2 0.7 1.5 1.6 3.9 1.5 5.3-0.1 2.7-3.6 2.5-3.5-0.1z"/>
							<path id="path39922" fill-rule="evenodd" class="s15" d="m196.1 176.4c0.2-0.2 0.9-0.6 1.7-0.6 0.9 0.1 1.4 0.4 1.7 0.7"/>
							<path id="path39924" fill-rule="evenodd" class="s15" d="m196.8 173.9c0.3-0.2 0.9-0.3 1.2-0.2 0.3 0 0.8 0.2 1.1 0.4"/>
						</g>
						<g id="g39926">
							<g id="g42304">
								<path id="path39928" fill-rule="evenodd" class="s14" d="m206.7 176.6c-0.2-2 0.8-5.3 1.7-7.4 1.2 1.9 2.9 4.9 3.1 6.8 0.4 3.7-4.3 4-4.8 0.6z"/>
								<path id="path39930" fill-rule="evenodd" class="s14" d="m207.3 176.5c-0.1-1.5 0.6-3.9 1.3-5.5 0.9 1.4 2.1 3.7 2.3 5.1 0.2 2.7-3.2 2.9-3.6 0.4z"/>
								<path id="path39932" fill-rule="evenodd" class="s15" d="m207.4 176.4c0.2-0.3 0.8-0.8 1.6-0.9 0.9-0.1 1.4 0.2 1.8 0.5"/>
								<path id="path39934" fill-rule="evenodd" class="s15" d="m207.7 173.8c0.3-0.2 0.8-0.4 1.1-0.4 0.3-0.1 0.9 0.1 1.1 0.2"/>
							</g>
						</g>
						<g id="g40118">
							<path id="path40120" fill-rule="evenodd" class="s14" d="m157.7 156.6c1.7-1.2 5.1-1.8 7.3-1.9-1.1 2-3 4.8-4.6 5.8-3.1 2-5.5-2-2.7-3.9z"/>
							<path id="path40122" fill-rule="evenodd" class="s14" d="m158.1 157.1c1.3-0.9 3.7-1.3 5.4-1.4-0.8 1.4-2.2 3.5-3.4 4.3-2.3 1.5-4.1-1.5-2-2.9z"/>
							<path id="path40124" fill-rule="evenodd" class="s15" d="m158.2 157c0.3 0.1 1 0.4 1.5 1.1 0.5 0.7 0.5 1.3 0.4 1.8"/>
							<path id="path40126" fill-rule="evenodd" class="s15" d="m160.6 156.2c0.4 0.1 0.8 0.5 0.9 0.8 0.2 0.2 0.4 0.8 0.4 1.1"/>
						</g>
						<g id="g40128">
							<path id="path40130" fill-rule="evenodd" class="s14" d="m155.1 151.8c1.8-1 5.2-1.2 7.5-1.1-1.3 1.8-3.6 4.5-5.2 5.3-3.3 1.7-5.3-2.5-2.3-4.2z"/>
							<path id="path40132" fill-rule="evenodd" class="s14" d="m155.4 152.4c1.4-0.8 3.9-1 5.6-0.9-1 1.4-2.6 3.3-3.9 4-2.4 1.2-3.9-1.9-1.7-3.1z"/>
							<path id="path40134" fill-rule="evenodd" class="s15" d="m155.5 152.3c0.3 0.2 1 0.5 1.4 1.3 0.4 0.7 0.4 1.3 0.2 1.8"/>
							<path id="path40136" fill-rule="evenodd" class="s15" d="m158 151.7c0.4 0.2 0.7 0.7 0.9 0.9 0.1 0.3 0.2 0.8 0.2 1.1"/>
						</g>
						<g id="g40138">
							<path id="path40140" fill-rule="evenodd" class="s14" d="m160.9 161.1c1.5-1.4 4.8-2.4 7-2.9-0.8 2.1-2.3 5.2-3.7 6.5-2.8 2.4-5.8-1.2-3.3-3.6z"/>
							<path id="path40142" fill-rule="evenodd" class="s14" d="m161.4 161.6c1.1-1.1 3.5-1.9 5.1-2.2-0.6 1.5-1.7 3.8-2.7 4.8-2.1 1.8-4.3-0.9-2.4-2.6z"/>
							<path id="path40144" fill-rule="evenodd" class="s15" d="m161.4 161.5c0.4 0.1 1.1 0.2 1.7 0.9 0.6 0.6 0.7 1.2 0.7 1.7"/>
							<path id="path40146" fill-rule="evenodd" class="s15" d="m163.7 160.3c0.4 0.1 0.9 0.5 1.1 0.7 0.2 0.2 0.4 0.7 0.4 1"/>
						</g>
						<g id="g40148">
							<path id="path40150" fill-rule="evenodd" class="s14" d="m151.2 141.5c2-0.5 5.4 0 7.6 0.5-1.7 1.6-4.4 3.6-6.3 4.1-3.5 1-4.6-3.6-1.3-4.6z"/>
							<path id="path40152" fill-rule="evenodd" class="s14" d="m151.5 142.1c1.4-0.4 3.9 0 5.5 0.4-1.2 1.1-3.2 2.7-4.6 3-2.6 0.7-3.4-2.7-0.9-3.4z"/>
							<path id="path40154" fill-rule="evenodd" class="s15" d="m151.5 142.1c0.3 0.2 0.9 0.7 1.1 1.5 0.2 0.8 0.1 1.4-0.1 1.8"/>
							<path id="path40156" fill-rule="evenodd" class="s15" d="m154.1 142c0.3 0.3 0.6 0.8 0.6 1.1 0.1 0.3 0.1 0.9 0 1.2"/>
						</g>
						<g id="g40158">
							<path id="path40160" fill-rule="evenodd" class="s14" d="m149.9 136.2c2-0.5 5.3 0.1 7.5 0.8-1.7 1.5-4.6 3.4-6.4 3.9-3.6 0.7-4.5-3.9-1.1-4.7z"/>
							<path id="path40162" fill-rule="evenodd" class="s14" d="m150.1 136.8c1.4-0.4 3.9 0.1 5.5 0.6-1.2 1.1-3.3 2.5-4.7 2.8-2.7 0.6-3.3-2.8-0.8-3.4z"/>
							<path id="path40164" fill-rule="evenodd" class="s15" d="m150.1 136.8c0.3 0.2 0.9 0.7 1.1 1.5 0.2 0.9 0 1.4-0.3 1.9"/>
							<path id="path40166" fill-rule="evenodd" class="s15" d="m152.7 136.8c0.3 0.3 0.6 0.8 0.6 1.1 0.1 0.3 0 0.9-0.1 1.2"/>
						</g>
						<g id="g40168">
							<path id="path40170" fill-rule="evenodd" class="s14" d="m152.9 146.8c1.9-0.7 5.3-0.5 7.5-0.2-1.5 1.7-4 4-5.8 4.7-3.4 1.3-4.9-3.2-1.7-4.5z"/>
							<path id="path40172" fill-rule="evenodd" class="s14" d="m153.2 147.4c1.4-0.5 3.9-0.4 5.6-0.2-1.2 1.3-3 3-4.4 3.5-2.5 1-3.6-2.3-1.2-3.3z"/>
							<path id="path40174" fill-rule="evenodd" class="s15" d="m153.3 147.4c0.3 0.2 0.9 0.6 1.2 1.4 0.3 0.8 0.2 1.3 0 1.8"/>
							<path id="path40176" fill-rule="evenodd" class="s15" d="m155.8 147.1c0.3 0.2 0.7 0.7 0.8 1 0.1 0.2 0.1 0.8 0 1.1"/>
						</g>
						<g id="g40178">
							<path id="path40180" fill-rule="evenodd" class="s14" d="m169.2 168.6c1-1.7 3.8-3.7 5.8-4.8-0.2 2.3-0.7 5.7-1.7 7.3-2 3.1-5.9 0.5-4.1-2.5z"/>
							<path id="path40182" fill-rule="evenodd" class="s14" d="m169.7 168.9c0.8-1.3 2.9-2.7 4.4-3.5-0.2 1.6-0.6 4.1-1.3 5.3-1.5 2.3-4.4 0.4-3.1-1.8z"/>
							<path id="path40184" fill-rule="evenodd" class="s15" d="m169.8 168.9c0.3-0.1 1.1-0.2 1.8 0.3 0.8 0.4 1 1 1.1 1.4"/>
							<path id="path40186" fill-rule="evenodd" class="s15" d="m171.6 167c0.4 0 1 0.2 1.2 0.4 0.3 0.1 0.6 0.6 0.8 0.8"/>
						</g>
						<g id="g40188">
							<path id="path40190" fill-rule="evenodd" class="s14" d="m164.8 165.1c1.3-1.5 4.3-3 6.5-3.7-0.5 2.2-1.6 5.4-2.9 6.9-2.4 2.7-5.8-0.5-3.6-3.2z"/>
							<path id="path40192" fill-rule="evenodd" class="s14" d="m165.3 165.5c0.9-1.1 3.2-2.2 4.8-2.8-0.4 1.6-1.2 4.1-2.1 5.1-1.8 2.1-4.4-0.3-2.7-2.3z"/>
							<path id="path40194" fill-rule="evenodd" class="s15" d="m165.3 165.5c0.4 0 1.1 0.1 1.8 0.6 0.6 0.6 0.8 1.1 0.9 1.6"/>
							<path id="path40196" fill-rule="evenodd" class="s15" d="m167.4 164c0.4 0 0.9 0.3 1.1 0.5 0.3 0.2 0.6 0.7 0.6 1"/>
						</g>
						<g id="g40198">
							<path id="path40200" fill-rule="evenodd" class="s14" d="m174 171.3c0.9-1.8 3.4-4 5.3-5.3 0.1 2.2-0.1 5.6-0.9 7.4-1.6 3.3-5.8 1.1-4.4-2.1z"/>
							<path id="path40202" fill-rule="evenodd" class="s14" d="m174.6 171.6c0.7-1.4 2.6-3.1 3.9-4 0.1 1.6-0.1 4.2-0.7 5.5-1.1 2.4-4.2 0.8-3.2-1.5z"/>
							<path id="path40204" fill-rule="evenodd" class="s15" d="m174.7 171.5c0.3-0.1 1.1-0.2 1.8 0.1 0.8 0.4 1.1 0.9 1.3 1.4"/>
							<path id="path40206" fill-rule="evenodd" class="s15" d="m176.3 169.5c0.4-0.1 1 0.1 1.2 0.2 0.3 0.1 0.7 0.5 0.9 0.8"/>
						</g>
						<g id="g40208">
							<path id="path40210" fill-rule="evenodd" class="s14" d="m184.5 175c0.4-2 2.4-4.8 3.9-6.5 0.6 2.2 1.2 5.6 0.8 7.5-0.7 3.5-5.3 2.4-4.7-1z"/>
							<path id="path40212" fill-rule="evenodd" class="s14" d="m185.2 175.1c0.3-1.5 1.7-3.5 2.9-4.8 0.4 1.6 0.8 4.1 0.5 5.5-0.5 2.6-3.9 1.8-3.4-0.7z"/>
							<path id="path40214" fill-rule="evenodd" class="s15" d="m185.2 175c0.3-0.2 1-0.4 1.8-0.3 0.9 0.2 1.3 0.6 1.6 1"/>
							<path id="path40216" fill-rule="evenodd" class="s15" d="m186.3 172.7c0.4-0.2 1-0.2 1.2-0.1 0.3 0.1 0.8 0.4 1.1 0.6"/>
						</g>
						<g id="g40218">
							<path id="path40220" fill-rule="evenodd" class="s14" d="m179.2 173.5c0.6-2 2.9-4.5 4.5-6.1 0.4 2.3 0.7 5.7 0.1 7.5-1.1 3.5-5.5 1.9-4.6-1.4z"/>
							<path id="path40222" fill-rule="evenodd" class="s14" d="m179.9 173.6c0.4-1.4 2-3.3 3.3-4.4 0.3 1.6 0.5 4.1 0 5.5-0.8 2.6-4.1 1.4-3.3-1.1z"/>
							<path id="path40224" fill-rule="evenodd" class="s15" d="m179.9 173.6c0.3-0.2 1-0.4 1.9-0.1 0.8 0.2 1.1 0.7 1.4 1.1"/>
							<path id="path40226" fill-rule="evenodd" class="s15" d="m181.2 171.4c0.4-0.1 1-0.1 1.3 0 0.2 0.1 0.7 0.4 0.9 0.7"/>
						</g>
						<g id="g40228">
							<path id="path40230" fill-rule="evenodd" class="s14" d="m189.9 176c0.1-2 1.8-5 3.2-6.8 0.8 2 1.7 5.4 1.5 7.3-0.3 3.6-5 2.9-4.7-0.5z"/>
							<path id="path40232" fill-rule="evenodd" class="s14" d="m190.5 176c0.1-1.5 1.4-3.7 2.4-5.1 0.6 1.6 1.3 4 1.1 5.4-0.3 2.7-3.7 2.2-3.5-0.3z"/>
							<path id="path40234" fill-rule="evenodd" class="s15" d="m190.5 175.9c0.3-0.2 1-0.5 1.8-0.5 0.9 0.1 1.3 0.5 1.7 0.9"/>
							<path id="path40236" fill-rule="evenodd" class="s15" d="m191.4 173.5c0.3-0.2 0.9-0.2 1.2-0.2 0.3 0 0.8 0.3 1.1 0.5"/>
						</g>
						<g id="g40238">
							<path id="path40240" fill-rule="evenodd" class="s14" d="m234.6 169.1c-1.2-1.6-1.9-5-2.1-7.3 2 1.1 4.9 3 6 4.5 2.1 3-1.9 5.6-3.9 2.8z"/>
							<path id="path40242" fill-rule="evenodd" class="s14" d="m235.1 168.7c-0.9-1.2-1.4-3.7-1.5-5.4 1.4 0.8 3.6 2.2 4.4 3.3 1.5 2.3-1.4 4.2-2.9 2.1z"/>
							<path id="path40244" fill-rule="evenodd" class="s15" d="m235.1 168.6c0-0.3 0.3-1 1-1.5 0.7-0.5 1.3-0.5 1.8-0.5"/>
							<path id="path40246" fill-rule="evenodd" class="s15" d="m234.1 166.2c0.2-0.3 0.6-0.8 0.8-0.9 0.2-0.2 0.8-0.4 1.1-0.4"/>
						</g>
						<g id="g40248">
							<path id="path40250" fill-rule="evenodd" class="s14" d="m229.5 171.7c-1-1.7-1.4-5.1-1.4-7.4 1.9 1.2 4.6 3.3 5.6 5 1.8 3.2-2.4 5.4-4.2 2.4z"/>
							<path id="path40252" fill-rule="evenodd" class="s14" d="m230 171.4c-0.7-1.3-1-3.8-1-5.5 1.4 0.9 3.4 2.4 4.1 3.7 1.3 2.3-1.7 3.9-3.1 1.8z"/>
							<path id="path40254" fill-rule="evenodd" class="s15" d="m230 171.3c0.1-0.3 0.5-1 1.2-1.5 0.7-0.4 1.3-0.4 1.8-0.3"/>
							<path id="path40256" fill-rule="evenodd" class="s15" d="m229.3 168.8c0.2-0.3 0.6-0.7 0.8-0.9 0.3-0.1 0.9-0.2 1.2-0.2"/>
						</g>
						<g id="g40258">
							<g id="g43287">
								<path id="path40260" fill-rule="evenodd" class="s14" d="m239.5 165.9c-1.5-1.4-2.6-4.6-3.2-6.9 2.1 0.8 5.3 2.2 6.6 3.6 2.5 2.6-1 5.8-3.4 3.3z"/>
								<path id="path40262" fill-rule="evenodd" class="s14" d="m239.9 165.4c-1.1-1-1.9-3.4-2.3-5 1.5 0.5 3.9 1.5 4.8 2.6 1.9 1.9-0.7 4.2-2.5 2.4z"/>
								<path id="path40264" fill-rule="evenodd" class="s15" d="m239.8 165.4c0.1-0.4 0.2-1.1 0.8-1.7 0.7-0.6 1.2-0.7 1.7-0.7"/>
								<path id="path40266" fill-rule="evenodd" class="s15" d="m238.5 163.1c0.1-0.3 0.5-0.8 0.7-1 0.2-0.2 0.7-0.5 1-0.5"/>
							</g>
						</g>
						<g id="g40298">
							<path id="path40300" fill-rule="evenodd" class="s14" d="m247.8 157.8c-1.8-1-3.8-3.7-4.9-5.7 2.3 0.1 5.7 0.6 7.3 1.6 3.2 1.9 0.6 5.8-2.4 4.1z"/>
							<path id="path40302" fill-rule="evenodd" class="s14" d="m248.1 157.3c-1.3-0.8-2.8-2.8-3.6-4.3 1.6 0.1 4.2 0.5 5.4 1.2 2.3 1.4 0.4 4.3-1.8 3.1z"/>
							<path id="path40304" fill-rule="evenodd" class="s15" d="m248 157.2c0-0.3-0.1-1.1 0.3-1.8 0.5-0.8 1-1 1.5-1.2"/>
							<path id="path40306" fill-rule="evenodd" class="s15" d="m246.2 155.4c0-0.4 0.1-0.9 0.3-1.2 0.1-0.2 0.6-0.6 0.9-0.7"/>
						</g>
						<g id="g40308">
							<path id="path40310" fill-rule="evenodd" class="s14" d="m243.9 162.2c-1.6-1.3-3.2-4.3-4-6.4 2.2 0.4 5.5 1.4 7 2.6 2.8 2.3-0.3 5.9-3 3.8z"/>
							<path id="path40312" fill-rule="evenodd" class="s14" d="m244.3 161.6c-1.2-0.9-2.4-3.1-3-4.7 1.6 0.3 4.1 1.1 5.2 2 2.1 1.7-0.2 4.3-2.2 2.7z"/>
							<path id="path40314" fill-rule="evenodd" class="s15" d="m244.2 161.6c0-0.4 0.1-1.1 0.6-1.8 0.5-0.6 1.1-0.8 1.6-0.9"/>
							<path id="path40316" fill-rule="evenodd" class="s15" d="m242.6 159.5c0.1-0.3 0.3-0.9 0.5-1.1 0.2-0.2 0.7-0.5 1-0.6"/>
						</g>
						<g id="g40318">
							<path id="path40320" fill-rule="evenodd" class="s14" d="m250.9 153.1c-1.8-0.9-3.9-3.6-5.1-5.5 2.2 0 5.7 0.4 7.3 1.3 3.3 1.7 0.9 5.8-2.2 4.2z"/>
							<path id="path40322" fill-rule="evenodd" class="s14" d="m251.2 152.6c-1.4-0.7-2.9-2.7-3.8-4.1 1.6 0 4.2 0.3 5.4 0.9 2.4 1.3 0.6 4.3-1.6 3.2z"/>
							<path id="path40324" fill-rule="evenodd" class="s15" d="m251.1 152.5c-0.1-0.3-0.2-1.1 0.2-1.8 0.4-0.8 0.9-1.1 1.4-1.2"/>
							<path id="path40326" fill-rule="evenodd" class="s15" d="m249.2 150.8c-0.1-0.4 0.1-1 0.2-1.2 0.2-0.3 0.6-0.7 0.9-0.8"/>
						</g>
						<g id="g40328">
							<path id="path40330" fill-rule="evenodd" class="s14" d="m255.5 143.2c-1.9-0.6-4.5-2.9-6-4.6 2.2-0.3 5.6-0.6 7.5 0 3.4 1.1 1.8 5.6-1.5 4.6z"/>
							<path id="path40332" fill-rule="evenodd" class="s14" d="m255.7 142.5c-1.5-0.4-3.4-2.1-4.5-3.3 1.6-0.3 4.2-0.5 5.5 0 2.6 0.8 1.4 4.1-1 3.3z"/>
							<path id="path40334" fill-rule="evenodd" class="s15" d="m255.6 142.5c-0.1-0.3-0.4-1-0.1-1.9 0.3-0.8 0.7-1.1 1.1-1.4"/>
							<path id="path40336" fill-rule="evenodd" class="s15" d="m253.4 141.2c-0.1-0.4-0.1-1 0-1.3 0.1-0.3 0.5-0.7 0.7-0.9"/>
						</g>
						<g id="g40338">
							<path id="path40340" fill-rule="evenodd" class="s14" d="m253.6 148.2c-1.9-0.7-4.3-3.2-5.7-5 2.3-0.2 5.7-0.2 7.5 0.6 3.4 1.4 1.4 5.7-1.8 4.4z"/>
							<path id="path40342" fill-rule="evenodd" class="s14" d="m253.8 147.6c-1.4-0.6-3.2-2.4-4.2-3.7 1.7-0.1 4.2-0.1 5.5 0.4 2.5 1.1 1.1 4.2-1.3 3.3z"/>
							<path id="path40344" fill-rule="evenodd" class="s15" d="m253.7 147.6c-0.1-0.4-0.3-1.1 0.1-1.9 0.3-0.8 0.8-1.1 1.2-1.3"/>
							<path id="path40346" fill-rule="evenodd" class="s15" d="m251.6 146c0-0.3 0.1-0.9 0.2-1.2 0.1-0.3 0.5-0.7 0.7-0.9"/>
						</g>
						<g id="g40348">
							<path id="path40350" fill-rule="evenodd" class="s14" d="m257.2 137.9c-1.9-0.4-4.7-2.3-6.4-3.9 2.1-0.6 5.5-1.2 7.4-0.8 3.6 0.8 2.4 5.3-1 4.7z"/>
							<path id="path40352" fill-rule="evenodd" class="s14" d="m257.3 137.3c-1.5-0.3-3.5-1.8-4.8-2.9 1.6-0.4 4.1-0.9 5.5-0.6 2.7 0.6 1.8 4-0.7 3.5z"/>
							<path id="path40354" fill-rule="evenodd" class="s15" d="m257.3 137.3c-0.2-0.3-0.5-1.1-0.3-1.9 0.1-0.8 0.5-1.2 0.9-1.5"/>
							<path id="path40356" fill-rule="evenodd" class="s15" d="m254.9 136.1c-0.1-0.3-0.1-0.9-0.1-1.2 0.1-0.3 0.4-0.8 0.6-1"/>
						</g>
					</g>
				</g>
				<path id="path26236" fill-rule="evenodd" class="s16" d="m273.5 468.8l-1.2 0.3 0.7 12c0.1 17.8 0.6 36.6 4.2 49.6l5.2-8.5 10.1 8.6c-3.1-31.1-9.3-22.2-19-62z"/>
				<path id="path7289" fill-rule="evenodd" class="s15" d="m278.6 538.1l5.8-8.3 7.9 6.6"/>
				<path id="path7291" fill-rule="evenodd" class="s15" d="m279.5 545.3l5.7-8 7.7 6.3"/>
				<path id="path7293" fill-rule="evenodd" class="s15" d="m280.6 552.8l5.5-7.7 7.4 6.2"/>
				<path id="path7295" fill-rule="evenodd" class="s15" d="m281.7 560.9l5.4-7.7 7.2 6"/>
				<path id="path7297" fill-rule="evenodd" class="s15" d="m282.7 568.3l5.2-7.6 7.1 6"/>
				<path id="path7299" fill-rule="evenodd" class="s15" d="m283.7 576.1l5.1-7.3 6.9 5.9"/>
				<path id="path7301" fill-rule="evenodd" class="s15" d="m284.9 583.7l4.9-7 6.7 5.7"/>
				<path id="path7303" fill-rule="evenodd" class="s15" d="m285.9 591.1l4.8-6.8 6.4 5.5"/>
				<path id="path7305" fill-rule="evenodd" class="s15" d="m286.9 598l4.6-6.6 6.2 5.3"/>
				<path id="path7307" fill-rule="evenodd" class="s15" d="m287.6 605.3l4.8-6.4 6 5"/>
				<path id="path7309" fill-rule="evenodd" class="s15" d="m288.5 612.6l4.9-6.2 5.8 4.9"/>
				<path id="path7311" fill-rule="evenodd" class="s15" d="m289.4 620l4.6-5.8 6.1 4.6"/>
				<path id="path7313" fill-rule="evenodd" class="s15" d="m290.4 627.2l4.6-5.6 5.8 4.1"/>
				<path id="path7319" fill-rule="evenodd" class="s15" d="m293.1 646.1l4.4-5.2 5.4 3.6"/>
				<path id="path27707" fill-rule="evenodd" class="s15" d="m292.2 640.3l4.3-5.6 5.7 3.9"/>
				<path id="path27709" fill-rule="evenodd" class="s15" d="m291.4 633.6l4.4-5.1 5.6 3.7"/>
				<path id="path27711" fill-rule="evenodd" class="s15" d="m293.9 652.7l4.5-5.3 5.3 4"/>
				<path id="path27713" fill-rule="evenodd" class="s15" d="m294.8 658.9l4.2-5.1 5.5 3.5"/>
				<path id="path27755" fill-rule="evenodd" class="s15" d="m296.3 671.1l4.5-5 5.7 3.5"/>
				<path id="path27757" fill-rule="evenodd" class="s15" d="m295.7 664.9l4.1-4.8 5.7 3.6"/>
				<path id="path27759" fill-rule="evenodd" class="s15" d="m296.7 673.3l10.1-1.5"/>
				<g id="g22363">
					<path id="path2718" fill-rule="evenodd" class="s17" d="m288.3 464.3c2.7-0.9 4.9-0.6 7 0l-1.2-33.7 16 1c-0.5-2.4-0.6-4.8 0-7.2l-16 1.1c3.3-6 8-11.3 9.7-20.1 3.5-17.8-5.6-17.1-11.9-17.1-6.8-0.1-16.9 1-12.7 17.8 1.9 7.8 6.6 13.9 10.4 19.4l-18-1.1c0.6 2.4 0.5 4.8 0 7.2l18-1z"/>
					<path id="path2720" fill-rule="evenodd" class="s7" d="m289.6 420.5c-3.4-4.7-6.8-9.3-7.6-15.3-1.7-12.3 4.7-13.7 9.8-13.7 4.6-0.1 11.4 0.6 8.4 13.5-1.5 6.1-3.7 11.6-6.1 15.5-1.6 2.1-3.2 1.8-4.5 0z"/>
				</g>
				<path id="path2716" fill-rule="evenodd" class="s2" d="m303.7 368l-19.9-0.5c-1 5-3.4 10.2-5.8 15.5-3.2 5-3.4 11.4-2.5 17.5l-0.3 5.7c8.9 1.1 0.3-10.8 5.9-15.2l0.9 8.2c1.6 1.5 3.2 2.7 4.5 0.3q2.4 2.7 4.8-0.3c1.9 2.5 3.5 0.7 5.2 0 1.8 1.4 3.7 1.9 4.9-1.3 0.3-8.7 2.9-17.1 2.3-29.9z"/>
				<g id="g13453">
					<g id="g31785">
						<path id="path31787" fill-rule="evenodd" class="s3" d="m283.7 356.3l20.8 0.2-0.9 13.1-19.8-0.8z"/>
						<path id="path31789" fill-rule="evenodd" class="s4" d="m283.7 358.2l20.6 0.3-0.2 4-20.4-0.3z"/>
					</g>
					<path id="path13439" fill-rule="evenodd" class="s3" d="m283.5 356.2l20.8 0.3-0.6 13-20.2-0.7z"/>
					<path id="path13441" fill-rule="evenodd" class="s4" d="m283.5 358.2l20.8 0.3-0.2 4-20.6-0.3z"/>
					<path id="path13451" fill-rule="evenodd" class="s4" d="m283.5 363.4l20.5 0.3-0.2 4.1-20.2-0.4z"/>
				</g>
				<path id="path2694" fill-rule="evenodd" class="s2" d="m72.2 344.2c-10.3 1.6-22.7 5.4-31 19l-5.1 3.1c2.7 6 8 2.6 9.7-0.5-1 2.7-0.5 4.5 2.8 4.5-0.7 2.5 0.2 4 3.2 4.1-1.6 2.5 0.3 4.7 3.1 4.2-1 3.2 0.7 4.6 2.4 4.6 4.6 2 25.1-23.4 27.1-25.6"/>
				<path id="path2722" fill-rule="evenodd" class="s17" d="m45.8 152.5c0.7-7.2-0.4-13.4 2.5-22.1 3.6-10.6 7.1-12.4 11.3-17.9 1.6-1.3 4.2 0 3.3 2.5-4.8 4.5-8.2 10.6-9.7 14.1 1.5-0.2 8.5-0.7 8.6 6.5v492.8c7.7 8.9 1.1 15.8 1.5 23.5-0.8 0.4-1.4 0.1-1.5-0.5-1-8.5 1.8-12.2-0.1-16.6-0.9-2.1-2.6-2-3.6-0.2-2.1 3.9 0.9 6.2 0.1 16.7 0 0.7-1 1-1.3 0.5-0.5-7.8-5.9-14.3 1.2-23.4v-492.2c-0.4-4-4.8-4.5-6.9 0.1-2.6 5.3-1.5 10.8-2.2 16.3-1.1 3.5-3.4 2.1-3.2-0.1z"/>
				<g id="g31791">
					<path id="path31793" fill-rule="evenodd" class="s3" d="m72.6 331l21.4 12.6-9.3 14-17.6-12.8z"/>
					<path id="path31795" fill-rule="evenodd" class="s4" d="m71.9 332.7l20.8 13.1-2.7 3.9-19.6-13z"/>
					<path id="path13461" fill-rule="evenodd" class="s4" d="m69.5 338.8l19 13.1-3 4.4-17.7-13.1z"/>
				</g>
				<path id="path17387" fill-rule="evenodd" class="s2" d="m58.7 355c3.7-2.8 8.1-2.4 4.6 1.8 3-2.9 9.1-2.4 3 3.4q0.1 0 0.2-0.1c-1.1 1.5 0.6 4.7 3.2 3.3l-3.1-3.3c5.3-3.1 5.5 1.3 2.7 3.8 3.8-2.3 4.8 1.3 1 5-3.8 4.7-8.3 9.5-12.6 14.2q-0.1 0.1-0.3 0.1c-1.7 0-3.4-1.2-2.5-4.5-2.7 0.6-4.6-1.7-3-4.2-3 0-4-1.5-3.3-4.1-3.2 0-4.1-1.3-3.1-4q0.2-0.4 0.4-0.6c4.6-4.9 8.8-8.5 12.7-10.7m0.8-0.6c-0.3 1.3 1 2.9 3 3zm3.9 2.4c-0.8 1.4 1.6 3.4 2.9 3.3zm3.3 3.2q0 0 0 0 0 0 0-0.1zm2.7 3.9c-0.7 1.6 0.6 3.3 2 3.6zm-17.4 10.6c0.6-0.4 14.5-14.3 14.5-14.3zm11.5-17.7c0 0-13.8 12.8-14.6 13.5zm-8.4 22l14.5-14.9"/>
				<path id="path17436" fill-rule="evenodd" class="s7" d="m63.3 356.9c-0.3 0.2-0.3 0.5-0.9 0.6-2.5 0-3.1-2.5-3-3 3.5-2.2 7.2-1.6 4 2.3 2.9-2.8 9-2.4 2.9 3.4 5.6-3.3 5.9 1.1 3.1 3.6 3.3-2.1 4.4 0.7 1.9 3.8-1.4-0.4-2.7-2-1.9-3.8-2.5 1.2-4.1-2.2-3-3.6-1.5 0.2-3.9-1.8-3.1-3.3z"/>
				<path id="path18425" fill-rule="evenodd" class="s18" d="m64.2 353.5c-2.5-0.9-5.7 0.9-12.7 6.8l-1.3-7.4c7.4-5 10.7-6.4 17.1-7.8"/>
				<path id="path20365" fill-rule="evenodd" class="s1" d="m64.3 353.5c-2.5-0.9-5.8 0.9-12.8 6.8m15.7-15.2c-6.4 1.4-9.8 2.7-17.1 7.9z"/>
				<g id="g10371">
					<path id="path10373" fill-rule="evenodd" class="s3" d="m111.4 189.7l34 1.3-1.8 17.6-34.7-2.4z"/>
					<path id="path10375" fill-rule="evenodd" class="s4" d="m111.2 191.6l33.9 1.8-0.5 5.1-34.2-1.7z"/>
					<path id="path10377" fill-rule="evenodd" class="s4" d="m110.1 198.6l34.2 2-0.6 5.5-34.5-1.9z"/>
				</g>
				<g id="g10387">
					<path id="path10389" fill-rule="evenodd" class="s3" d="m127.3 613.6l28.2 6.5-6.1 16.6-25.6-6.7z"/>
					<path id="path10391" fill-rule="evenodd" class="s4" d="m126.8 615.6l27.9 6.6-1.7 4.6-27.2-6.3z"/>
					<path id="path10393" fill-rule="evenodd" class="s4" d="m125.4 622.3l26.6 7-1.9 5-25.9-6.5z"/>
				</g>
				<g id="g10395">
					<path id="path10397" fill-rule="evenodd" class="s3" d="m240.9 619.6h30.9l-2.1 17.6-28.1-1z"/>
					<path id="path10399" fill-rule="evenodd" class="s4" d="m241 621.5l30.5 0.5-0.7 5-29.6-0.3z"/>
					<path id="path10401" fill-rule="evenodd" class="s4" d="m241.3 628.6l29.4 0.6-0.7 5.5-28.5-0.5z"/>
				</g>
				<path id="path10403" fill-rule="evenodd" class="s6" d="m267.3 479c-90.5-15.2-107-83.4-100.2-171.3l82.4-14.5c7.8 13 12.4 30.5 6.5 40 7.7 48.5 12.3 97.7 11.3 145.8z"/>
				<g id="g10718">
					<path id="path10409" fill-rule="evenodd" class="s3" d="m249.2 293l-6.3-29.8-75.8 36.7-0.2 7.6z"/>
					<path id="path10433" fill-rule="evenodd" class="s19" d="m216.5 281.9l6.6-2.7 1.7 4.1-6.7 2.4z"/>
					<path id="path10427" fill-rule="evenodd" class="s20" d="m225.8 278.1l6-2.6 2 4.8-6.2 2.1z"/>
					<path id="path10417" fill-rule="evenodd" class="s19" d="m234.5 274.6l6.9-2.9 2.1 5-7.1 2.5z"/>
					<path id="path10411" fill-rule="evenodd" class="s7" d="m242.9 263.1l0.8 3.7-73.2 32.1-3.2 0.9z"/>
					<path id="path10457" fill-rule="evenodd" class="s19" d="m179.8 296.9l6-2.5 0.9 2.4-6.1 2.2z"/>
					<path id="path10451" fill-rule="evenodd" class="s20" d="m188.8 293.3l6.5-2.7 1 2.7-6.5 2.3z"/>
					<path id="path10445" fill-rule="evenodd" class="s19" d="m197.9 289.6l6.5-2.8 1.4 3.3-6.8 2.3z"/>
					<path id="path10439" fill-rule="evenodd" class="s21" d="m207.3 285.6l6.7-2.8 1.6 3.9-6.8 2.4z"/>
					<path id="path10413" fill-rule="evenodd" class="s22" d="m245.6 276.2l-67 23.6"/>
					<path id="path10415" fill-rule="evenodd" class="s22" d="m244.3 270.4l-67.7 27.7"/>
					<path id="path10419" fill-rule="evenodd" class="s22" d="m233.6 274.9l1.9 4.6"/>
					<path id="path10421" fill-rule="evenodd" class="s22" d="m232.7 275.2l1.9 4.7"/>
					<path id="path10423" fill-rule="evenodd" class="s22" d="m243.2 270.9l2.1 5.3"/>
					<path id="path10425" fill-rule="evenodd" class="s22" d="m242.3 271.3l2.1 5.2"/>
					<path id="path10429" fill-rule="evenodd" class="s22" d="m224.9 278.5l1.9 4.2"/>
					<path id="path10431" fill-rule="evenodd" class="s22" d="m224 278.8l1.8 4.2"/>
					<path id="path10435" fill-rule="evenodd" class="s22" d="m215.7 282.2l1.5 3.7"/>
					<path id="path10437" fill-rule="evenodd" class="s22" d="m214.8 282.5l1.7 3.8"/>
					<path id="path10441" fill-rule="evenodd" class="s22" d="m206.1 286.1l1.5 3.2"/>
					<path id="path10443" fill-rule="evenodd" class="s22" d="m205.3 286.4l1.5 3.3"/>
					<path id="path10447" fill-rule="evenodd" class="s22" d="m197 289.9l1.1 2.8"/>
					<path id="path10449" fill-rule="evenodd" class="s22" d="m196.1 290.3l1.1 2.8"/>
					<path id="path10453" fill-rule="evenodd" class="s22" d="m188 293.6l0.8 2.5"/>
					<path id="path10455" fill-rule="evenodd" class="s22" d="m187 294l0.9 2.5"/>
					<path id="path10459" fill-rule="evenodd" class="s22" d="m179 297.2l0.8 2.1"/>
					<path id="path10461" fill-rule="evenodd" class="s22" d="m178.2 297.5l0.8 2.1"/>
					<path id="path10467" fill-rule="evenodd" class="s19" d="m236.9 285.2l7.2-2.1 1.5 5.2-7.4 1.6z"/>
					<path id="path10477" fill-rule="evenodd" class="s20" d="m227.9 287.6l6.3-1.8 1.4 4.9-6.4 1.4z"/>
					<path id="path10483" fill-rule="evenodd" class="s19" d="m218.2 290.4l6.9-2 1.2 4.3-7 1.6z"/>
					<path id="path10489" fill-rule="evenodd" class="s21" d="m208.6 293l7-2 1.2 4-7.1 1.7z"/>
					<path id="path10495" fill-rule="evenodd" class="s19" d="m198.8 296l6.8-2.1 1 3.4-7.1 1.6z"/>
					<path id="path10501" fill-rule="evenodd" class="s20" d="m189.5 298.5l6.6-1.9 0.7 2.9-6.7 1.5z"/>
					<path id="path10507" fill-rule="evenodd" class="s19" d="m180.4 301.1l6-1.6 0.7 2.3-6.1 1.4z"/>
					<path id="path10463" fill-rule="evenodd" class="s22" d="m248 287.9l-69.5 16"/>
					<path id="path10465" fill-rule="evenodd" class="s22" d="m246.8 282.2l-69.9 19.8"/>
					<path id="path10469" fill-rule="evenodd" class="s22" d="m236 285.4l1.4 4.8"/>
					<path id="path10471" fill-rule="evenodd" class="s22" d="m235.1 285.5l1.3 4.9"/>
					<path id="path10473" fill-rule="evenodd" class="s22" d="m245.9 282.5l1.5 5.4"/>
					<path id="path10475" fill-rule="evenodd" class="s22" d="m245 282.7l1.6 5.5"/>
					<path id="path10479" fill-rule="evenodd" class="s22" d="m227 288l1.4 4.3"/>
					<path id="path10481" fill-rule="evenodd" class="s22" d="m226 288.2l1.4 4.3"/>
					<path id="path10485" fill-rule="evenodd" class="s22" d="m217.4 290.6l1.1 3.9"/>
					<path id="path10487" fill-rule="evenodd" class="s22" d="m216.5 290.8l1.2 4"/>
					<path id="path10491" fill-rule="evenodd" class="s22" d="m207.4 293.4l1.2 3.4"/>
					<path id="path10493" fill-rule="evenodd" class="s22" d="m206.6 293.6l1 3.5"/>
					<path id="path10497" fill-rule="evenodd" class="s22" d="m198 296.2l0.7 2.9"/>
					<path id="path10499" fill-rule="evenodd" class="s22" d="m197 296.5l0.8 2.8"/>
					<path id="path10503" fill-rule="evenodd" class="s22" d="m188.5 298.8l0.7 2.5"/>
					<path id="path10505" fill-rule="evenodd" class="s22" d="m187.5 299.1l0.7 2.6"/>
					<path id="path10509" fill-rule="evenodd" class="s22" d="m179.8 301.2l0.6 2.2"/>
					<path id="path10511" fill-rule="evenodd" class="s22" d="m179.2 301.4l0.4 2.1"/>
					<path id="path10513" fill-rule="evenodd" class="s1" d="m179.4 300.2l66.6-22.2"/>
					<path id="path10515" fill-rule="evenodd" class="s1" d="m179.5 300.7l66.9-20.5"/>
					<path id="path10517" fill-rule="evenodd" class="s1" d="m178.7 304.5l69.6-15.3"/>
					<path id="path10519" fill-rule="evenodd" class="s1" d="m177.6 305.2l71.3-13.8"/>
					<path id="path10521" fill-rule="evenodd" class="s1" d="m173.2 298.2l70.7-30.3"/>
					<path id="path10523" fill-rule="evenodd" class="s1" d="m175 298.1l69.1-29"/>
					<path id="path10525" fill-rule="evenodd" class="s3" d="m166.9 307.6c7.9-1.8 13.7-1 12.6-6.9-0.8-4.3-8.3-2.3-12.4-0.9z"/>
				</g>
				<g id="g18488">
					<path id="path11979" fill-rule="evenodd" class="s5" d="m150.2 478.9l17-170.3 88.6-0.1c1.2 4.7 5.3 13.4 0.3 26 7.7 48.3 12.3 97.1 11.2 145.1z"/>
					<path id="path11981" fill-rule="evenodd" class="s6" d="m267.1 479.2c-90.5-15.2-106.9-83.4-100.1-171.3l82.4-14.6c7.8 13.1 12.5 31.5 6.6 41 7.7 48.5 12.2 96.8 11.1 144.9z"/>
					<path id="path12063" fill-rule="evenodd" class="s14" d="m249.2 293.4l-66.8 130.9"/>
					<path id="path12065" fill-rule="evenodd" class="s14" d="m245.2 294.1l-64.7 126.7"/>
					<path id="path12067" fill-rule="evenodd" class="s14" d="m178.8 417l62.4-122.2"/>
					<path id="path12069" fill-rule="evenodd" class="s14" d="m237.2 295.5l-60 117.6"/>
					<path id="path12071" fill-rule="evenodd" class="s14" d="m175.6 409l57.6-112.8"/>
					<path id="path12073" fill-rule="evenodd" class="s14" d="m229.2 296.9l-55 107.9"/>
					<path id="path12075" fill-rule="evenodd" class="s14" d="m172.8 400.3l52.4-102.7"/>
					<path id="path12077" fill-rule="evenodd" class="s14" d="m221.2 298.3l-49.7 97.3"/>
					<path id="path12079" fill-rule="evenodd" class="s14" d="m170.4 390.8l46.8-91.8"/>
					<path id="path12081" fill-rule="evenodd" class="s14" d="m213.2 299.8l-43.8 85.8"/>
					<path id="path12083" fill-rule="evenodd" class="s14" d="m168.4 380.3l40.8-79.8"/>
					<path id="path12085" fill-rule="evenodd" class="s14" d="m205.2 301.1l-37.6 73.6"/>
					<path id="path12087" fill-rule="evenodd" class="s14" d="m167 368.9l34.2-67"/>
					<path id="path12089" fill-rule="evenodd" class="s14" d="m197.2 302.6l-30.8 60.3"/>
					<path id="path12091" fill-rule="evenodd" class="s14" d="m166 356.6l27.2-53.3"/>
					<path id="path12093" fill-rule="evenodd" class="s14" d="m189.2 304l-23.5 45.9"/>
					<path id="path12095" fill-rule="evenodd" class="s14" d="m165.6 343.1l19.6-38.5"/>
					<path id="path12101" fill-rule="evenodd" class="s14" d="m181.2 305.4l-15.6 30.5"/>
					<path id="path12103" fill-rule="evenodd" class="s14" d="m165.8 328.4l11.4-22.3"/>
					<path id="path12105" fill-rule="evenodd" class="s14" d="m173.2 306.8l-7.1 14"/>
					<path id="path12107" fill-rule="evenodd" class="s14" d="m166.6 312.6l2.6-5.1"/>
					<path id="path12109" fill-rule="evenodd" class="s14" d="m251.2 296.6l-66.9 131.1"/>
					<path id="path12111" fill-rule="evenodd" class="s14" d="m186.3 431l66.7-130.7"/>
					<path id="path12113" fill-rule="evenodd" class="s14" d="m254.6 304.2l-66.3 129.9"/>
					<path id="path12115" fill-rule="evenodd" class="s14" d="m190.4 437.1l65.7-128.7"/>
					<path id="path12117" fill-rule="evenodd" class="s14" d="m257.4 313.1l-64.8 126.8"/>
					<path id="path12119" fill-rule="evenodd" class="s14" d="m194.9 442.6l63.4-124.3"/>
					<path id="path12121" fill-rule="evenodd" class="s14" d="m258.6 324.8l-61.4 120.4"/>
					<path id="path12123" fill-rule="evenodd" class="s14" d="m199.6 447.7l56.8-111.4"/>
					<path id="path12125" fill-rule="evenodd" class="s14" d="m257.3 341.8l-55.3 108.2"/>
					<path id="path12127" fill-rule="evenodd" class="s14" d="m204.5 452.3l53.5-104.9"/>
					<path id="path12129" fill-rule="evenodd" class="s14" d="m258.9 352.9l-51.9 101.6"/>
					<path id="path12131" fill-rule="evenodd" class="s14" d="m209.7 456.4l49.9-97.8"/>
					<path id="path12133" fill-rule="evenodd" class="s14" d="m260.4 364.2l-48.1 94.2"/>
					<path id="path12135" fill-rule="evenodd" class="s14" d="m215 460.2l46-90.2"/>
					<path id="path12137" fill-rule="evenodd" class="s14" d="m261.8 375.7l-44 86.2"/>
					<path id="path12139" fill-rule="evenodd" class="s14" d="m220.6 463.6l41.9-82.1"/>
					<path id="path12141" fill-rule="evenodd" class="s14" d="m263 387.6l-39.6 77.6"/>
					<path id="path12143" fill-rule="evenodd" class="s14" d="m226.3 466.6l37.4-73.3"/>
					<path id="path12145" fill-rule="evenodd" class="s14" d="m264.2 399.5l-35 68.5"/>
					<path id="path12147" fill-rule="evenodd" class="s14" d="m232.2 469.3l32.6-63.8"/>
					<path id="path12149" fill-rule="evenodd" class="s14" d="m265.2 411.8l-30 58.8"/>
					<path id="path12151" fill-rule="evenodd" class="s14" d="m238.2 471.8l27.5-53.8"/>
					<path id="path12153" fill-rule="evenodd" class="s14" d="m266.1 424.3l-24.7 48.5"/>
					<path id="path12155" fill-rule="evenodd" class="s14" d="m244.4 473.9l22-43.1"/>
					<path id="path12157" fill-rule="evenodd" class="s14" d="m266.7 437.4l-19.1 37.4"/>
					<path id="path12159" fill-rule="evenodd" class="s14" d="m250.8 475.7l16.2-31.8"/>
					<path id="path12161" fill-rule="evenodd" class="s14" d="m267.2 450.7l-13.2 25.8"/>
					<path id="path12163" fill-rule="evenodd" class="s14" d="m257.2 477.3l10-19.6"/>
					<path id="path12165" fill-rule="evenodd" class="s14" d="m267.3 464.7l-6.7 13.3"/>
					<path id="path12167" fill-rule="evenodd" class="s14" d="m263.9 478.6l3.3-6.6"/>
					<path id="path15477" fill-rule="evenodd" class="s1" d="m267 479.2c-90.4-15.2-106.9-83.4-100.1-171.3l82.4-14.6c7.8 13.1 12.6 31.5 6.7 41 7.6 48.5 12.1 96.8 11 144.9z"/>
				</g>
				<path id="path18544" fill-rule="evenodd" class="s23" d="m170.3 291.2c0 0.5-0.1 1-0.3 1.4-0.1 0.4-0.3 0.6-0.5 0.6-0.2 0-0.5-0.2-0.6-0.6-0.2-0.4-0.3-0.9-0.3-1.4 0-0.6 0.1-1.1 0.3-1.5 0.1-0.4 0.3-0.6 0.5-0.6 0.3 0 0.5 0.2 0.6 0.6 0.2 0.4 0.3 0.9 0.3 1.5z"/>
				<path id="path12450" fill-rule="evenodd" class="s24" d="m122.5 96.4c-0.3 1.3-0.3 2.5-1 4l9.8 0.3c-0.3-1.4-0.2-2.9-0.2-4.3z"/>
				<path id="path3292" fill-rule="evenodd" class="s24" d="m117.6 92.3l17.3-3.4 1.1 3.2-17.9 1.2z"/>
				<path id="path2295" fill-rule="evenodd" class="s25" d="m186.2 37c-12.4 3.6-24.7 5.4-33.6 16.7-14 7.1-23.7 14.7-32.3 24.6l-5.2 6.1c-2.6 2.8 1 5.3 2.5 7.9 5.4-0.8 12.3-0.4 16.1-2.4 1.3-1 1.9 1.3 0.7 1.4-2.9 0-11.8 1.8-16.5 1.6 3.1 7.1 14.6 2.5 17.9 3.5 10.7 2.8 21.6 4.6 29.1 4.3 4.2 7.1 7.4 16.2 12.5 28.6 2.5 6.3 14.2 18.6 18.8 12.4 0.2-1.9 13.6 0 13.7-2.1 0.5-12.3-13.8-30-15.1-41.1 11.5-26 9.1-53.9-8.6-61.5z"/>
				<path id="path2242" fill-rule="evenodd" class="s25" d="m82.2 16.5c-1.3 8.7 2.1 18.3 18.1 19.7 12.1 1.1 16.7-4.9 25.1-4.7-9.4-4.5-21.6 1.1-32.2-2.6-4.1-1.4-9.1-4.3-11-12.4z"/>
				<path id="path2246" fill-rule="evenodd" class="s25" d="m141.7 23.2c15.1 0.6 13.5-6.2 30.3-6.2 7.9 0 20 5.8 23 11.8l-1.9 1.7-3.5 3.4c-11.1-6.5-65.4-8-50.7-10.8 1.1 0.1 1.8 0.1 2.8 0.1z"/>
				<path id="path2244" fill-rule="evenodd" class="s26" d="m90 27.4c-2.3-1.5-2.3-1.1-0.6 0.8 10 10.6 20.8 0 32.2 2.4 8.7 1.8 17.2 3.7 26.6 3.7 11.1 0 34.3-8.5 32 3.4 0 0.1-0.2 0.9-0.2 1 10.2-2.3 10.5-3.4 10-5-1.5-3.8-6.1-7.2-10.5-8.5-8.1-2.3-18.2 0.9-28.5 0.1-12.3-0.9-13.2-4.4-30-3.6-13 0.6-17.2 11.9-31 5.7z"/>
				<path id="path2250" fill-rule="evenodd" class="s25" d="m303.6 11.7c1.9 8.5-0.8 18.4-16.6 21-12 2-17-3.6-25.4-2.8 9.1-5.3 21.6-0.5 31.9-5.1 4-1.7 8.8-5 10.1-13.1z"/>
				<path id="path2252" fill-rule="evenodd" class="s25" d="m247.5 22.5c-18.4 3.1-15.6-4.9-33.4-3.6-6.3 0.5-14.8 4.8-19.4 9.6-1.2 1.3-3.1 3.7-8.8 8.6 2.9 1.9 4.8 4.2 5.9 6.8 15.7-24.6 49.1-13.3 55.7-21.4z"/>
				<path id="path2254" fill-rule="evenodd" class="s26" d="m296.6 23.1c2.2-1.7 2.2-1.2 0.7 0.8-9.2 11.3-20.8 1.5-32 4.8-8.5 2.4-16.9 5-26.2 5.7-8.3 0.7-21.4-1.6-27.3 1.5-2 1.1-8.5 4.2-15.3 15.1-1.4-3.9-2.3-5.4-4.9-7.1 1.1-3.9 10.5-14 16.5-16.1 8-2.9 17.3-0.6 27.5-2.2 12.2-1.8 12.9-5.4 29.6-5.9 13.1-0.4 18.1 10.7 31.4 3.4z"/>
				<path id="path2297" fill-rule="evenodd" class="s27" d="m198.1 51.7l-9.8 8c-9.4 2.7-14 11.9-19.5 14.6-2.5 1.2-2.2 2.7 0.2 1.6 7.4-3.2 14.4 0.2 22.6-10.7l7.4-4.5"/>
				<path id="path2307" fill-rule="evenodd" class="s27" d="m188.7 59.7l2.9 5.2"/>
				<path id="path2309" fill-rule="evenodd" class="s27" d="m190.1 58.5l3.1 5.2"/>
				<path id="path2311" fill-rule="evenodd" class="s27" d="m191.9 57l3.3 5.7"/>
				<g id="g8563">
					<path id="path3148" fill-rule="evenodd" class="s28" d="m159.7 58.5c0.2 0 2.6-1.9 2.8-2.1 1-1.1 2.5-3.8 3.5-5.4 3-0.6 5.8-1.5 9.5-0.8q3.6 4.9-1.1 7c-4.9 1.8-9.1-0.6-11.3 0.1-0.2 0-2.9 1.5-3.1 1.7-0.5 0.2-0.5-0.2-0.3-0.5z"/>
					<path id="path3150" fill-rule="evenodd" class="s29" d="m173.9 50.5c-2.2-0.8-5.1-0.2-7 0.9-2.2 8.3 9.8 7.5 7-0.9z"/>
					<path id="path3152" fill-rule="evenodd" class="s30" d="m171.7 52.8c0.3 0.6-0.1 1.4-0.8 1.7-0.6 0.3-1.4 0.1-1.7-0.5-0.4-0.6-0.1-1.2 0.6-1.5 0.6-0.4 1.6-0.3 1.9 0.3z"/>
				</g>
				<path id="path2315" fill-rule="evenodd" class="s30" d="m118 84.3c-1.1 1-0.6 2.1 0.6 1.8 2.8-0.8 1.8-4-0.6-1.8z"/>
				<path id="path2317" fill-rule="evenodd" class="s27" d="m121.3 77.5c0.4 0.1 0.8 0.4 0.9 0.7"/>
				<path id="path2319" fill-rule="evenodd" class="s27" d="m123.2 75.5c1.1 0.2 1.7 0.7 2.2 1.5"/>
				<path id="path2321" fill-rule="evenodd" class="s27" d="m125 73.7c1.3 0.2 2.4 0.9 3.1 1.8"/>
				<path id="path18452" fill-rule="evenodd" class="s31" d="m179.9 135l4.2 5.5c4.8 3.5 13.8 6.1 21 4.5l-3.8-15v-1.1c-1.5-0.4-4.9 0.3-6.3 1.7-2.9-0.1-5 0.1-7.5 1.9-2.5-0.8-7 1.1-7.6 2.5z"/>
				<path id="path16062" fill-rule="evenodd" class="s17" d="m226.3 126.8l40 7.2c45.2 13.7 38.1 43.5 38.5 55.4l0.4 7.6 8.7-0.1-0.2-36.4-0.3-2.2c-4.1-21.7-8.5-46.4-22.4-64.4-17.3-23.4-43.8-54.2-85.2-53.9-2.5 2.3-6.5 5.5-9.6 11.3 6.5 16.3 1.3 36.1-1.8 47.4 5.1 20 6 26.2 8.1 61.4 0.5 21.8 0.6 35.6 0.6 35.6h25.6c0.1-11.8 0-20 0.1-34.7-0.9-12-0.7-24.8-2.5-34.2z"/>
				<g id="g10361">
					<path id="path10329" fill-rule="evenodd" class="s6" d="m304.8 184.9h9l-0.1 11.9-8.5 0.2z"/>
					<path id="path10331" fill-rule="evenodd" class="s32" d="m305.1 186.1l7.5 0.1"/>
					<path id="path10333" fill-rule="evenodd" class="s32" d="m305.2 187.9h7.2"/>
					<path id="path10335" fill-rule="evenodd" class="s32" d="m305.2 189.7l7.1 0.1"/>
					<path id="path10337" fill-rule="evenodd" class="s32" d="m305.4 191.7l7.1 0.1"/>
					<path id="path10339" fill-rule="evenodd" class="s32" d="m305.5 193.7h7.1"/>
					<path id="path10341" fill-rule="evenodd" class="s32" d="m305.6 195.4h7.1"/>
					<path id="path10352" fill-rule="evenodd" class="s1" d="m304.8 184.9l0.4 11.8"/>
				</g>
				<path id="path4201" fill-rule="evenodd" class="s17" d="m172.9 118.4c-15.5 11.3-13.5 24.5-15 37.6 0 0.4-0.1 40.3-0.1 40.7l24.3-0.4c0 0 0-40 0-40.3 0-6.2 2-10.4 4.1-14.1-6.2-6.3-9.6-15.1-13.3-23.5z"/>
				<g id="g23213">
					<path id="path19439" fill-rule="evenodd" class="s6" d="m203 184.8h25.7v11.7h-25.7z"/>
					<path id="path10305" fill-rule="evenodd" class="s33" d="m204.6 185.9l22.3 0.1"/>
					<path id="path10307" fill-rule="evenodd" class="s33" d="m204.6 188l22.3 0.1"/>
					<path id="path10309" fill-rule="evenodd" class="s33" d="m204.6 189.9l22.3 0.1"/>
					<path id="path10311" fill-rule="evenodd" class="s33" d="m204.6 191.7l22.3 0.1"/>
					<path id="path10313" fill-rule="evenodd" class="s33" d="m204.8 193.6h22.3"/>
					<path id="path10315" fill-rule="evenodd" class="s33" d="m204.7 195.5l22.4-0.2"/>
				</g>
				<g id="g19139">
					<path id="path19437" fill-rule="evenodd" class="s6" d="m157.8 184.9h24.3v11.8h-24.3z"/>
					<path id="path13463" fill-rule="evenodd" class="s33" d="m159.1 186l21.4 0.1"/>
					<path id="path14434" fill-rule="evenodd" class="s33" d="m159.1 187.8l21.4 0.1"/>
					<path id="path15405" fill-rule="evenodd" class="s33" d="m159.1 189.7l21.4 0.1"/>
					<path id="path15407" fill-rule="evenodd" class="s33" d="m159.2 191.7l21.3 0.1"/>
					<path id="path15415" fill-rule="evenodd" class="s33" d="m159.3 193.7h21.4"/>
					<path id="path15417" fill-rule="evenodd" class="s33" d="m159.2 195.6l21.4-0.2"/>
				</g>
			</g>
		</g>
	</g>
</svg>